<?xml version="1.0" standalone="no"?>
<!DOCTYPE svg PUBLIC "-//W3C//DTD SVG 20010904//EN"
 "http://www.w3.org/TR/2001/REC-SVG-20010904/DTD/svg10.dtd">
<svg version="1.0" xmlns="http://www.w3.org/2000/svg"
 width="300.000000pt" height="300.000000pt" viewBox="0 0 300.000000 300.000000"
 preserveAspectRatio="xMidYMid meet">
<metadata>
Created by potrace 1.11, written by Peter Selinger 2001-2013
</metadata>
<g transform="translate(0.000000,300.000000) scale(0.100000,-0.100000)"
fill="#000000" stroke="none">
<path d="M1340 2981 c0 -5 5 -13 10 -16 6 -3 10 -2 10 4 0 5 -4 13 -10 16 -5
3 -10 2 -10 -4z"/>
<path d="M1465 2980 c-3 -5 -1 -10 4 -10 6 0 11 5 11 10 0 6 -2 10 -4 10 -3 0
-8 -4 -11 -10z"/>
<path d="M1346 2899 c3 -5 11 -9 17 -9 15 0 48 -36 40 -44 -3 -3 2 -12 10 -21
18 -17 12 -45 -9 -45 -8 0 -11 -6 -7 -16 5 -13 7 -13 14 -2 7 10 9 9 9 -4 0
-10 -7 -18 -17 -18 -15 0 -15 -1 0 -18 10 -11 16 -33 15 -56 l-1 -38 -19 23
c-14 19 -17 20 -11 5 4 -13 3 -17 -4 -13 -6 4 -14 1 -16 -5 -3 -7 -6 -1 -6 15
-1 17 -6 27 -17 27 -8 0 -12 -4 -9 -10 10 -17 -15 -11 -34 8 -10 9 -21 25 -24
35 -9 25 -26 21 -20 -4 l6 -22 -32 19 c-18 10 -46 34 -62 52 -18 21 -29 27
-29 17 0 -8 5 -15 10 -15 6 0 10 -6 10 -13 0 -7 10 -17 22 -22 12 -6 28 -25
35 -43 13 -32 13 -33 -8 -27 -14 5 -19 4 -15 -4 11 -16 -16 -13 -42 5 -13 9
-24 14 -25 13 -12 -20 -23 -69 -16 -69 15 0 26 -34 19 -60 -7 -25 -8 -24 -24
12 -8 20 -21 40 -27 43 -6 5 -8 20 -5 40 6 30 3 34 -23 46 -17 8 -27 18 -24
26 3 7 0 13 -6 13 -6 0 -11 -5 -11 -11 0 -6 -5 -7 -12 -2 -7 4 -17 8 -23 8 -5
0 -9 8 -7 18 2 11 -2 15 -12 11 -12 -5 -13 -11 -6 -24 13 -24 13 -30 -1 -30
-5 0 -8 4 -5 9 3 5 -1 14 -9 21 -13 10 -15 9 -15 -11 -1 -23 -1 -23 -15 -6 -7
11 -12 26 -9 35 3 10 -1 7 -7 -5 -10 -19 -3 -32 66 -117 74 -92 76 -96 59
-113 -16 -17 -17 -17 -11 -1 8 23 -10 33 -30 16 -12 -9 -15 -9 -9 0 4 6 2 12
-3 12 -6 0 -11 -5 -11 -10 0 -6 -14 -4 -31 5 -17 9 -34 14 -37 10 -3 -3 3 -8
14 -11 12 -3 28 -22 37 -43 21 -47 21 -57 2 -41 -12 10 -18 10 -30 0 -9 -7
-18 -10 -22 -6 -3 3 -1 6 5 6 7 0 12 10 12 23 -1 20 -2 20 -11 5 -12 -21 -34
-24 -26 -4 3 7 0 19 -6 25 -9 9 -9 14 1 20 10 6 10 10 -3 21 -9 8 -13 21 -10
34 5 19 5 19 -5 4 -15 -25 -27 -22 -34 7 -6 25 -29 34 -41 15 -3 -5 0 -8 7 -5
8 3 17 -8 24 -29 8 -28 8 -33 -4 -29 -11 5 -12 -2 -7 -31 8 -40 4 -44 -16 -19
-12 15 -12 16 1 8 8 -4 3 3 -12 18 -31 29 -35 46 -15 66 10 10 9 11 -5 6 -11
-4 -18 -2 -18 4 0 6 4 11 8 11 4 0 6 16 4 35 -2 19 -8 35 -13 35 -5 0 -9 12
-9 28 l-1 27 -13 -25 c-8 -14 -12 -29 -8 -34 3 -5 -2 -7 -10 -3 -9 3 -21 0
-27 -6 -7 -7 -34 -12 -61 -12 -47 0 -49 1 -43 25 5 25 5 25 -11 5 -12 -14 -19
-16 -22 -7 -3 6 -10 12 -15 12 -5 0 3 -21 17 -46 20 -36 23 -48 14 -60 -10
-11 -9 -15 4 -20 22 -9 20 -24 -4 -24 -11 0 -20 -4 -20 -10 0 -5 9 -10 20 -10
23 0 27 -15 5 -24 -8 -3 -15 -1 -15 4 0 6 -7 10 -16 10 -8 0 -29 13 -45 29
-16 16 -29 26 -29 21 0 -5 4 -11 9 -14 5 -3 12 -18 16 -33 3 -15 12 -32 19
-37 8 -6 16 -26 20 -44 l6 -33 -35 27 c-19 14 -32 30 -29 35 3 5 -2 6 -11 2
-15 -5 -14 -9 7 -27 28 -25 82 -115 74 -123 -3 -4 -22 -2 -41 4 -22 7 -35 7
-35 1 0 -5 -4 -7 -9 -4 -4 3 -6 -6 -3 -19 3 -16 0 -25 -8 -25 -7 0 -10 7 -7
14 4 10 1 13 -8 10 -8 -3 -16 4 -20 18 -8 25 -55 85 -55 71 0 -5 5 -14 12 -21
15 -15 3 -28 -14 -15 -8 6 -22 7 -33 2 -19 -7 -19 -8 3 -8 12 -1 30 -9 40 -18
11 -10 40 -35 66 -57 l47 -38 -20 -22 c-12 -13 -18 -27 -14 -31 5 -5 1 -5 -7
1 -23 16 -52 25 -45 14 3 -6 0 -10 -8 -10 -20 0 -57 34 -57 53 0 9 -4 19 -10
22 -5 3 -10 1 -10 -6 0 -25 -40 25 -46 57 -3 19 -10 34 -14 34 -5 0 -4 -15 2
-32 21 -68 26 -98 16 -98 -5 0 -7 -4 -4 -9 4 -5 0 -12 -6 -15 -7 -3 -4 -5 7
-5 32 2 65 -12 65 -27 0 -8 -4 -14 -8 -14 -11 0 -12 -39 -1 -45 5 -4 9 -13 9
-22 0 -11 -7 -14 -27 -10 l-28 5 27 -19 c15 -11 25 -26 22 -33 -2 -6 4 -23 16
-36 24 -28 25 -34 3 -26 -15 6 -15 5 1 -13 10 -11 22 -18 27 -15 8 5 29 -27
29 -44 0 -5 -11 -7 -25 -4 -20 3 -24 1 -19 -11 3 -8 15 -18 27 -21 12 -3 18
-8 15 -11 -7 -8 -50 13 -60 29 -11 17 -17 3 -11 -27 3 -17 9 -24 13 -17 8 13
60 3 60 -11 0 -14 -70 -119 -79 -119 -5 0 -15 7 -22 17 -11 12 -11 17 -2 20 8
3 2 15 -15 34 -15 17 -30 38 -35 47 -4 11 -6 5 -3 -13 3 -17 0 -37 -6 -45 -8
-12 -9 -12 -4 3 6 20 -2 47 -16 47 -5 0 -6 -6 -1 -12 4 -7 6 -25 4 -40 -1 -16
2 -28 8 -28 19 0 12 -28 -8 -35 -17 -5 -43 -2 -94 12 -14 4 -13 0 5 -20 29
-30 68 -52 68 -37 0 5 -7 10 -16 10 -8 0 -12 5 -9 10 3 5 16 10 28 10 28 0 69
-28 62 -41 -4 -5 1 -9 9 -9 9 0 16 -9 16 -20 0 -12 9 -24 21 -28 18 -7 19 -10
6 -20 -25 -21 -77 -3 -94 34 -10 20 -21 30 -30 27 -11 -5 -11 -9 3 -24 16 -18
16 -19 -2 -19 -18 -1 -18 -1 1 -12 30 -16 31 -18 15 -28 -10 -6 -2 -8 23 -7
20 1 37 5 37 9 0 4 13 2 30 -3 16 -6 28 -15 27 -19 -1 -5 7 -16 18 -24 17 -14
18 -17 5 -27 -12 -9 -11 -10 7 -6 25 6 63 -18 63 -39 0 -15 -42 -16 -56 -1
-11 11 -22 8 -21 -5 1 -38 -4 -46 -23 -41 -11 3 -20 11 -20 19 0 7 -4 16 -10
19 -20 13 -9 -17 15 -39 l25 -23 -28 5 c-25 5 -26 4 -12 -14 8 -10 20 -22 25
-26 6 -4 0 -8 -13 -8 -13 0 -20 4 -17 10 3 6 0 10 -9 10 -8 0 -22 3 -31 6 -10
4 -15 2 -13 -7 3 -16 118 -49 133 -39 54 39 240 -68 218 -126 -3 -8 0 -14 6
-14 6 0 11 5 11 12 0 9 3 9 12 0 7 -7 21 -12 33 -12 11 0 34 -12 51 -27 17
-16 48 -36 70 -47 34 -16 37 -19 19 -26 -11 -4 -27 -5 -35 -2 -13 5 -13 4 0
-10 8 -9 17 -12 20 -8 10 14 49 21 67 11 10 -5 39 -17 65 -26 25 -9 52 -23 59
-31 10 -13 8 -13 -13 -5 -14 5 -29 7 -33 3 -4 -4 -11 -8 -16 -8 -22 -3 -23 -5
-9 -15 11 -8 -3 -9 -50 -4 -36 4 -70 11 -77 17 -10 8 -13 6 -13 -5 0 -15 28
-20 183 -31 21 -2 41 -7 45 -11 4 -4 -3 -5 -15 -2 -13 3 -25 2 -28 -3 -2 -4
-17 -5 -31 -2 -18 3 -25 1 -20 -6 4 -6 13 -9 21 -6 7 3 22 -3 33 -14 17 -17
22 -18 26 -6 7 18 26 18 26 0 0 -8 4 -18 10 -21 6 -4 8 10 6 35 -2 22 -1 40 1
40 8 0 33 -29 33 -38 0 -6 8 -8 18 -6 10 3 34 -12 60 -37 41 -39 42 -41 31
-74 -10 -28 -15 -32 -33 -25 -19 8 -72 22 -88 24 -3 1 -10 5 -15 10 -5 5 -3 6
5 2 15 -9 16 22 2 44 -8 13 -10 13 -10 -2 0 -22 -31 -39 -58 -31 -25 6 -26 7
-11 35 9 16 8 19 -3 16 -7 -3 -14 -10 -14 -16 -3 -25 -5 -27 -13 -13 -7 11
-15 11 -40 3 -20 -7 -42 -8 -63 -1 -36 10 -64 12 -56 4 6 -6 23 -10 128 -29
92 -17 161 -43 141 -55 -9 -6 -10 -11 -2 -15 6 -4 11 -2 11 4 0 23 142 -3 225
-41 22 -10 60 -21 84 -25 30 -5 45 -13 48 -25 3 -10 9 -16 14 -13 5 3 6 10 3
16 -4 6 15 -2 42 -18 95 -54 101 -60 109 -111 6 -46 36 -104 76 -148 9 -11 21
-32 24 -47 6 -23 4 -26 -14 -21 -16 4 -21 1 -21 -15 0 -23 35 -52 62 -52 10 0
18 -7 18 -15 0 -18 -12 -19 -28 -3 -9 9 -12 9 -12 1 0 -7 5 -15 11 -18 7 -5 4
-14 -7 -26 -17 -19 -36 -26 -32 -11 1 4 -3 17 -10 28 -6 12 -8 24 -5 28 3 3 1
6 -5 6 -7 0 -12 -5 -12 -11 0 -6 -9 -8 -21 -4 -15 5 -20 3 -17 -6 2 -7 -2 -20
-10 -29 -11 -14 -38 -17 -142 -19 -71 -1 -148 -4 -170 -6 -32 -4 -40 -1 -40
12 0 15 -1 15 -13 -1 -7 -10 -22 -17 -33 -14 -16 3 -19 13 -21 57 -1 29 -4 55
-7 59 -6 6 -9 -43 -6 -90 1 -24 -2 -28 -23 -28 -14 0 -33 -3 -43 -7 -15 -5
-16 -2 -11 23 5 25 2 30 -14 31 -10 1 -19 -5 -19 -13 0 -8 -5 -14 -11 -14 -5
0 -8 4 -4 9 3 5 -6 22 -20 37 -13 14 -22 31 -19 36 4 6 -2 7 -15 3 -13 -4 -21
-2 -21 6 0 8 -5 8 -17 -2 -11 -10 -14 -10 -9 -1 4 6 2 12 -3 12 -6 0 -11 -4
-11 -10 0 -5 -13 -7 -30 -3 l-30 6 15 -37 c8 -20 13 -36 10 -36 -3 0 -10 12
-15 26 -9 23 -12 24 -25 10 -16 -16 -20 -31 -6 -22 5 3 14 0 20 -8 8 -10 8
-16 -4 -26 -12 -10 -16 -9 -21 4 -3 9 -12 16 -20 16 -8 0 -14 5 -14 11 0 6 -5
9 -11 7 -12 -4 -13 -23 -1 -23 11 0 32 -15 32 -23 0 -11 -83 -1 -99 12 -8 6
-22 10 -32 8 -9 -2 -20 2 -24 8 -6 10 20 15 64 11 25 -2 91 28 91 41 0 5 -8 8
-18 8 -10 0 -22 4 -27 9 -21 19 -102 31 -134 20 -17 -6 -57 -9 -90 -7 -44 2
-57 0 -54 -9 7 -19 -8 -16 -23 4 -8 11 -13 13 -14 6 0 -19 -24 -16 -51 8 -13
11 -31 18 -40 16 -12 -3 -16 0 -12 9 3 8 9 14 13 14 4 0 11 8 14 17 4 10 4 15
1 11 -4 -3 -20 -2 -36 2 -29 8 -50 -3 -27 -14 7 -3 2 -3 -12 0 -14 4 -26 10
-28 15 -2 4 -11 5 -20 2 -14 -6 -15 -4 -4 9 10 13 10 17 0 20 -10 4 -10 9 2
23 14 18 13 18 -11 0 -15 -11 -24 -24 -22 -30 4 -7 2 -7 -5 0 -8 9 -15 39 -24
117 -2 12 -6 14 -12 8 -7 -7 -7 -17 2 -30 6 -11 12 -32 12 -46 0 -27 0 -27
-22 -8 -12 10 -18 13 -14 7 4 -7 4 -13 -1 -14 -4 0 -18 -2 -30 -5 -12 -2 -25
1 -28 6 -20 32 -25 -7 -25 -185 l0 -195 1500 0 1500 0 0 164 c0 122 -3 166
-12 169 -10 4 -10 6 0 6 16 1 16 31 0 31 -9 0 -9 3 0 12 7 7 12 36 12 66 0 44
-3 53 -15 48 -8 -3 -15 -1 -15 3 0 5 7 11 15 15 8 3 15 11 15 17 0 8 -4 8 -14
-1 -10 -8 -21 -8 -32 -2 -15 8 -14 11 6 25 13 9 27 14 32 11 4 -3 8 0 8 6 0 6
-11 8 -27 4 l-28 -6 24 14 c36 19 36 33 -1 51 -18 9 -28 17 -23 17 6 0 5 4 -1
8 -9 5 -8 11 2 20 9 8 14 9 14 2 0 -6 5 -8 10 -5 6 3 10 1 10 -4 0 -6 5 -11
10 -11 6 0 10 24 9 58 -2 49 -5 58 -21 59 -17 2 -18 -1 -7 -14 11 -13 10 -17
-6 -29 -10 -8 -23 -14 -28 -14 -4 0 -5 -4 -2 -10 3 -5 -1 -10 -10 -10 -9 0
-13 -4 -10 -10 3 -5 1 -10 -6 -10 -8 0 -8 -4 1 -15 7 -8 9 -15 6 -15 -11 0 27
-37 44 -43 9 -3 5 -6 -10 -6 -15 -1 -32 5 -39 12 -8 6 -11 7 -8 2 3 -6 2 -17
-4 -25 -5 -9 -9 -10 -9 -4 0 7 -6 14 -14 17 -10 4 -14 0 -11 -14 2 -10 -1 -19
-6 -19 -6 0 -8 -4 -5 -9 3 -5 -1 -11 -9 -15 -19 -7 -19 -30 0 -46 12 -10 15
-10 15 4 0 9 5 16 10 16 7 0 7 -7 0 -20 -6 -11 -15 -18 -21 -15 -5 4 -9 -1 -9
-11 0 -12 -5 -15 -22 -9 -13 3 -30 7 -38 7 -8 1 -18 6 -22 12 -5 8 -8 7 -8 -1
0 -16 31 -32 50 -25 12 4 13 2 3 -9 -17 -17 -16 -30 1 -23 19 7 31 -15 17 -29
-9 -9 -14 -9 -20 1 -10 16 -69 33 -76 22 -3 -5 8 -13 25 -17 43 -11 34 -29
-12 -25 -23 2 -38 -1 -38 -7 0 -6 -4 -11 -8 -11 -5 0 -6 14 -4 31 3 22 1 30
-7 25 -6 -4 -11 -3 -11 2 0 15 -64 12 -82 -5 -12 -11 -36 -15 -82 -14 -36 0
-68 -4 -71 -9 -3 -6 3 -10 14 -10 12 0 21 -4 21 -10 0 -5 -7 -10 -15 -10 -9 0
-18 -7 -21 -15 -5 -12 -9 -13 -20 -4 -12 10 -13 8 -4 -15 16 -44 13 -72 -10
-72 -12 0 -19 6 -17 14 1 8 -5 18 -13 22 -49 25 -69 32 -79 26 -6 -4 -11 -3
-11 3 0 6 -6 8 -14 5 -8 -3 -30 -1 -48 4 -27 7 -42 6 -69 -9 -28 -14 -31 -19
-16 -24 23 -10 22 -25 -3 -25 -18 0 -19 -2 -8 -20 11 -17 10 -22 -2 -30 -19
-12 -40 -13 -40 0 0 5 8 13 18 19 16 9 15 10 -3 10 -11 -1 -30 2 -42 4 -13 3
-23 1 -23 -4 0 -6 -4 -8 -9 -5 -5 3 -6 21 -2 38 4 18 5 41 3 51 -4 21 -28 22
-36 1 -4 -9 -11 -12 -18 -7 -7 4 -16 8 -20 8 -3 0 -10 4 -15 9 -5 5 -3 6 5 2
16 -9 28 22 14 36 -7 7 -14 3 -23 -13 -7 -13 -12 -28 -10 -34 1 -5 -3 -4 -10
2 -10 10 -9 16 4 31 11 12 15 26 11 38 -10 28 -53 64 -70 57 -28 -10 -14 35
26 86 47 59 72 75 88 59 8 -8 12 -8 12 -2 0 6 -9 15 -21 20 -20 9 -18 12 26
53 28 26 52 40 61 37 9 -3 12 -2 9 5 -8 12 63 78 85 79 9 0 27 -8 40 -17 l25
-17 -19 22 c-11 12 -25 22 -33 22 -8 0 -11 5 -8 11 4 6 14 8 22 5 8 -3 11 -1
8 4 -4 6 13 19 37 29 46 20 73 17 43 -6 -16 -11 -16 -13 -3 -13 9 0 19 8 22
17 6 15 8 15 16 3 8 -13 10 -13 10 1 0 8 -5 20 -12 27 -9 9 -4 12 22 12 19 0
59 11 88 25 30 14 68 25 84 25 26 0 30 -3 25 -21 -5 -17 -3 -19 6 -10 16 16
-5 47 -29 43 -15 -3 -16 -2 -5 12 8 9 16 15 18 12 2 -2 15 6 28 18 36 33 50
43 83 60 17 9 33 25 37 36 3 11 12 20 20 20 7 0 20 6 27 13 25 25 148 88 158
82 6 -4 9 -3 8 2 -1 4 23 35 55 68 31 32 57 63 57 69 0 5 -27 -19 -60 -54 -60
-65 -78 -73 -61 -27 8 20 7 27 -5 31 -8 3 -12 1 -9 -4 3 -5 1 -18 -4 -27 -9
-15 -10 -13 -11 15 0 19 5 32 13 32 8 0 7 4 -3 10 -12 7 -18 3 -27 -18 -8 -19
-8 -29 0 -34 13 -8 -15 -38 -37 -38 -8 0 -17 -4 -20 -9 -3 -4 11 -7 32 -5 34
2 35 1 18 -11 -10 -8 -22 -12 -27 -10 -4 3 -10 1 -13 -4 -3 -5 -15 -7 -25 -4
-14 4 -20 -1 -23 -17 -2 -14 -17 -30 -37 -41 -18 -10 -40 -27 -48 -39 -8 -12
-21 -19 -29 -16 -8 3 -14 1 -14 -4 0 -6 -7 -10 -16 -10 -8 0 -12 -4 -9 -10 3
-5 -3 -10 -14 -10 -12 0 -21 -5 -21 -11 0 -5 -5 -7 -10 -4 -6 4 -9 1 -8 -7 2
-7 -3 -12 -9 -10 -7 1 -13 -4 -13 -10 0 -15 -58 -57 -86 -63 -10 -2 -35 -9
-54 -14 -19 -6 -44 -11 -55 -10 -13 1 -7 5 15 12 46 14 62 31 47 46 -8 8 -15
6 -29 -6 -23 -21 -31 -14 -12 12 12 16 18 17 33 8 16 -10 22 -8 37 13 10 13
25 24 32 24 8 0 12 10 10 26 -2 17 3 29 12 32 12 4 13 2 4 -9 -9 -11 -9 -17 2
-27 8 -7 14 -9 14 -5 0 4 5 2 12 -5 17 -17 33 -15 19 2 -10 12 -8 17 9 26 16
8 19 17 14 33 -4 12 -12 25 -18 29 -6 4 1 8 17 8 15 0 27 -4 27 -10 0 -5 7 -7
15 -4 14 6 13 8 -2 19 -17 12 -16 14 10 20 15 4 36 5 47 2 13 -3 25 2 34 15
12 17 27 24 58 27 4 1 18 13 31 27 13 14 32 27 42 28 22 3 27 37 7 56 -12 11
-13 10 -8 -7 10 -31 -39 -69 -115 -89 -72 -19 -110 -14 -89 11 17 20 37 19 50
-2 9 -16 10 -15 8 7 -2 20 1 24 17 22 17 -2 17 -1 5 8 -13 9 -12 12 5 23 11 6
34 17 50 23 19 7 29 17 27 28 -2 9 2 16 8 16 5 0 10 -4 10 -10 0 -5 5 -10 10
-10 6 0 10 7 10 15 0 8 5 15 11 15 5 0 7 -4 4 -10 -3 -5 -2 -10 4 -10 5 0 13
4 16 10 3 5 14 10 24 10 10 0 18 7 18 15 0 10 -4 12 -13 4 -8 -7 -13 -7 -16 1
-4 12 -58 -9 -58 -23 0 -5 -4 -5 -10 -2 -5 3 -19 1 -31 -5 -30 -17 -79 -21
-79 -8 0 6 3 8 6 5 4 -3 19 11 35 32 35 50 55 62 35 23 -9 -17 -20 -34 -26
-37 -5 -3 -10 -11 -10 -17 0 -6 13 6 29 26 17 21 32 32 36 26 3 -5 12 -10 18
-10 7 0 3 8 -8 16 -20 16 -20 16 5 32 48 33 79 63 99 97 11 19 16 35 11 35 -5
0 -17 -16 -26 -35 -17 -36 -68 -80 -82 -71 -5 3 -26 -11 -47 -30 -25 -22 -49
-34 -67 -34 -25 0 -28 -3 -24 -25 3 -17 0 -25 -10 -25 -8 0 -23 -6 -34 -12
-16 -10 -24 -10 -39 -1 -15 10 -21 10 -24 0 -2 -7 -7 -9 -11 -6 -9 9 4 40 14
34 11 -7 60 16 60 27 0 5 -6 6 -12 2 -7 -4 -2 5 11 19 14 15 30 27 38 27 7 0
13 7 13 15 0 8 7 15 16 15 8 0 12 5 9 10 -3 6 1 13 9 16 9 3 13 10 10 16 -3 5
5 21 17 35 13 15 18 23 10 18 -8 -4 -17 -2 -22 6 -7 11 -9 10 -9 -3 0 -10 -4
-18 -10 -18 -5 0 -10 5 -10 11 0 8 -4 8 -14 0 -11 -10 -16 -8 -21 8 -8 28 -19
26 -33 -4 -7 -16 -17 -23 -27 -19 -20 8 -19 17 5 39 20 18 20 18 -1 33 l-20
14 21 15 c19 13 23 13 39 -1 10 -9 24 -16 31 -16 14 0 5 14 -11 16 -5 1 -12 2
-16 3 -4 0 2 8 13 17 18 14 18 15 -5 8 l-24 -6 25 25 c13 13 30 38 37 56 8 17
18 31 23 31 5 0 7 4 4 9 -3 5 1 14 9 21 8 7 15 17 15 22 0 5 9 17 19 26 14 12
17 23 11 37 -7 18 -8 18 -15 -7 -4 -16 -13 -28 -21 -28 -15 0 -19 12 -7 24 14
14 15 58 1 54 -7 -3 -14 -19 -16 -37 -2 -23 -7 -31 -18 -27 -10 4 -14 -2 -14
-19 0 -20 -5 -25 -25 -25 -14 0 -25 -4 -25 -10 0 -5 5 -10 12 -10 24 0 -2 -11
-36 -16 -36 -4 -36 -4 -24 23 7 16 15 32 20 38 4 5 8 14 8 20 0 5 -4 4 -8 -2
-7 -10 -11 -10 -24 0 -17 13 -32 87 -18 87 5 0 14 10 20 23 10 20 10 20 -3 5
-8 -10 -19 -18 -26 -18 -10 0 -15 -16 -14 -48 1 -7 -1 -11 -4 -8 -3 3 -14 1
-23 -4 -21 -11 -46 12 -34 31 5 9 2 10 -10 6 -10 -4 -20 -7 -22 -7 -3 0 -3 -4
1 -9 3 -5 1 -12 -5 -16 -5 -3 -10 3 -10 14 0 11 14 28 35 41 19 12 35 24 35
26 0 3 -5 2 -11 -2 -6 -3 -15 0 -20 7 -12 19 -11 29 2 29 5 0 7 -4 4 -10 -3
-5 -2 -10 4 -10 5 0 13 5 16 10 3 6 1 10 -5 10 -7 0 -10 6 -7 13 2 6 10 12 18
12 8 0 17 5 21 10 5 6 8 6 8 -2 0 -6 -4 -14 -10 -18 -15 -9 0 -35 21 -35 21 0
22 5 10 35 -5 11 -4 25 2 33 7 9 6 11 -6 7 -10 -4 -18 3 -25 22 l-10 28 -1
-31 c-1 -25 -8 -34 -41 -53 -22 -12 -44 -20 -49 -17 -5 3 -11 0 -14 -8 -4 -10
1 -12 16 -9 21 5 21 5 5 -12 -26 -28 -49 -13 -41 27 7 38 14 48 20 31 3 -7 12
-13 20 -13 13 0 13 3 -1 25 -9 14 -13 24 -9 23 8 -3 63 48 63 58 0 2 -14 -3
-31 -11 -17 -9 -32 -15 -34 -13 -2 2 3 18 12 35 12 25 19 31 32 24 13 -7 16
-3 18 28 1 30 0 32 -8 14 -4 -13 -13 -23 -18 -23 -5 0 -17 -7 -25 -16 -15 -14
-16 -12 -18 18 0 18 -1 39 -1 46 1 8 -6 10 -18 7 -22 -7 -25 5 -6 24 10 10 8
11 -8 5 -34 -12 -35 -14 -20 -45 15 -28 9 -39 -10 -20 -17 16 -65 1 -65 -20 0
-11 6 -19 13 -20 6 0 2 -4 -11 -10 -13 -5 -21 -13 -17 -19 3 -6 -1 -7 -10 -4
-10 4 -14 13 -10 22 5 12 1 12 -15 -3 -11 -10 -20 -13 -20 -7 0 6 5 14 11 17
6 4 8 13 5 20 -2 7 0 18 5 24 5 6 6 9 3 6 -4 -3 -13 0 -21 6 -10 9 -13 8 -13
-5 0 -9 -4 -16 -10 -16 -15 0 -12 9 10 37 24 30 26 47 5 40 -8 -4 -17 -1 -21
5 -4 7 -3 8 4 4 7 -4 12 -3 12 2 0 6 7 9 16 8 11 -1 17 9 20 29 2 27 1 28 -10
13 -7 -10 -16 -18 -19 -18 -11 0 5 34 26 57 l20 22 -22 -4 c-17 -3 -21 1 -22
23 -1 26 -1 26 -11 -5 -7 -22 -17 -33 -30 -33 -31 0 -33 28 -4 55 36 34 33 42
-5 11 -30 -26 -50 -33 -48 -18 1 4 1 15 0 25 -1 25 -21 11 -21 -15 0 -12 -3
-19 -6 -15 -3 3 2 36 11 72 15 61 20 111 16 158 0 9 -8 17 -17 17 -13 0 -14
-3 -4 -15 8 -9 9 -25 5 -42 -4 -16 -7 -43 -6 -60 3 -34 -12 -45 -23 -18 -3 8
-13 15 -22 15 -8 0 -14 -3 -12 -7 2 -5 12 -25 23 -45 10 -21 16 -40 13 -43
-10 -11 -37 7 -31 21 3 8 -1 14 -10 14 -10 0 -13 -7 -10 -20 3 -11 9 -20 14
-20 5 0 9 -8 9 -17 0 -15 -2 -16 -10 -3 -9 13 -10 13 -11 0 -1 -8 -1 -17 -1
-20 0 -3 -6 -11 -14 -18 -11 -10 -14 -10 -12 5 3 34 -2 86 -7 81 -3 -3 -8 -16
-10 -28 -7 -38 -12 -33 -12 14 0 25 4 43 8 40 5 -3 9 0 9 6 0 6 -7 13 -15 16
-8 4 -12 11 -8 18 4 6 6 22 4 36 -2 14 0 22 4 19 3 -4 7 -20 7 -37 1 -25 4
-28 22 -24 11 3 15 7 8 10 -7 2 -10 8 -6 13 3 5 -1 16 -9 24 -11 11 -13 24 -6
61 9 47 0 74 -24 74 -7 0 -7 -4 1 -12 7 -7 12 -22 12 -35 0 -21 -2 -22 -20
-11 -25 16 -26 54 -2 76 9 10 13 14 7 9 -5 -4 -17 2 -25 13 -15 19 -15 16 -12
-52 3 -43 10 -79 18 -89 19 -21 18 -53 0 -46 -10 4 -13 1 -9 -9 3 -9 -2 -14
-16 -14 -24 0 -25 4 -11 31 6 11 7 25 3 32 -4 6 -8 18 -9 25 -4 21 -14 27 -14
8 0 -14 -4 -15 -20 -6 -24 13 -26 5 -5 -17 18 -18 15 -26 -8 -18 -20 8 -27 38
-12 52 9 9 16 9 26 0 11 -10 11 -9 1 4 -6 9 -8 19 -4 24 4 4 -3 3 -14 -3 -20
-11 -23 -8 -33 33 -11 46 -25 64 -17 23 3 -13 7 -39 11 -59 5 -35 5 -35 -25
-31 -31 4 -35 15 -31 72 1 20 -1 22 -9 10 -8 -12 -10 -10 -10 10 l0 24 -16
-23 c-11 -15 -13 -25 -6 -30 6 -3 15 -18 21 -33 9 -23 8 -26 -9 -25 -10 1 -18
4 -17 8 3 9 -13 8 -38 -2 -11 -4 -14 -8 -7 -8 7 -1 11 -5 7 -11 -3 -5 -3 -21
1 -36 7 -26 8 -26 20 -9 8 11 14 15 14 9 0 -19 -16 -33 -35 -30 -22 3 -33 53
-19 84 4 10 7 20 6 24 -1 4 4 5 12 2 7 -3 16 2 20 11 3 9 2 14 -3 10 -5 -3
-12 1 -14 7 -4 10 -8 9 -16 -2 -6 -8 -11 -10 -11 -5 0 14 19 42 21 30 1 -5 5
4 9 20 8 33 11 107 3 88 -2 -7 -12 -13 -21 -13 -15 -1 -15 -2 1 -14 22 -17 14
-61 -13 -78 -11 -7 -15 -19 -12 -31 3 -14 1 -18 -9 -15 -22 7 -40 50 -36 86 2
25 0 31 -11 27 -7 -3 -16 -5 -18 -5 -2 0 -4 -7 -4 -15 0 -8 5 -15 11 -15 5 0
9 -8 8 -17 -1 -10 -1 -33 0 -52 1 -29 3 -32 16 -21 13 10 15 9 15 -9 0 -11 -6
-21 -14 -21 -16 0 -33 42 -35 85 -1 16 -8 33 -16 38 -8 4 -15 15 -15 23 0 12
-4 12 -20 4 -19 -10 -22 -7 -19 16 0 4 -5 11 -13 15 -11 7 -11 12 1 31 8 14 8
18 1 12 -7 -7 -24 -9 -46 -4 -19 5 -32 4 -28 -1z m124 -103 c0 -8 3 -22 7 -32
4 -11 2 -15 -7 -12 -16 5 -25 58 -10 58 5 0 10 -6 10 -14z m20 -81 c7 -14 10
-28 7 -32 -4 -3 -7 2 -7 12 0 15 -3 16 -12 7 -16 -16 -25 -15 -32 4 -15 38 24
46 44 9z m-484 -52 c19 -48 34 -123 23 -123 -4 0 -11 10 -15 22 -4 12 -20 36
-37 53 -25 24 -27 31 -14 33 10 2 17 13 17 28 0 34 7 30 26 -13z m904 -10 c0
-13 -3 -13 -15 -3 -8 7 -15 19 -15 27 0 13 3 13 15 3 8 -7 15 -19 15 -27z
m-864 1 c1 -10 7 -32 13 -48 6 -16 9 -31 6 -35 -9 -8 -25 21 -25 46 0 12 -4
25 -10 28 -14 9 -12 37 3 33 6 -3 13 -13 13 -24z m598 11 c3 -9 0 -15 -9 -15
-9 0 -12 6 -9 15 4 8 7 15 9 15 2 0 5 -7 9 -15z m-341 -29 c-3 -4 -9 -2 -14 5
-13 22 -11 31 5 17 8 -7 12 -17 9 -22z m267 8 c0 -8 -4 -12 -10 -9 -5 3 -10
13 -10 21 0 8 5 12 10 9 6 -3 10 -13 10 -21z m120 16 c0 -5 -5 -10 -11 -10 -5
0 -7 5 -4 10 3 6 8 10 11 10 2 0 4 -4 4 -10z m80 -12 c27 -29 27 -53 0 -38
-18 9 -40 40 -40 54 0 13 20 5 40 -16z m-50 -19 c0 -11 -4 -17 -10 -14 -5 3
-10 15 -10 26 0 11 5 17 10 14 6 -3 10 -15 10 -26z m-1003 -1 c-3 -8 -6 -5 -6
6 -1 11 2 17 5 13 3 -3 4 -12 1 -19z m629 6 c-3 -9 -6 -18 -6 -20 0 -3 -4 -3
-10 1 -11 7 -2 35 12 35 6 0 7 -7 4 -16z m-671 -4 c3 -5 -3 -10 -15 -10 -12 0
-18 5 -15 10 3 6 10 10 15 10 5 0 12 -4 15 -10z m1175 0 c0 -5 -4 -10 -10 -10
-5 0 -10 5 -10 10 0 6 5 10 10 10 6 0 10 -4 10 -10z m-1236 -10 c17 -6 26 -17
26 -30 0 -12 7 -34 15 -50 16 -31 3 -53 -18 -30 -9 10 -9 11 1 6 16 -9 15 14
-1 35 -21 28 -41 28 -54 0 -11 -22 -12 -22 -7 -3 3 13 1 22 -6 22 -16 0 -30
43 -16 52 15 10 30 10 60 -2z m936 -5 c11 -13 10 -14 -4 -9 -9 3 -16 10 -16
15 0 13 6 11 20 -6z m-140 -5 c0 -5 -2 -10 -4 -10 -3 0 -8 5 -11 10 -3 6 -1
10 4 10 6 0 11 -4 11 -10z m282 -15 c3 -13 1 -22 -3 -19 -9 5 -13 44 -5 44 2
0 6 -11 8 -25z m138 -1 c0 -22 -16 -17 -17 6 -1 11 2 18 8 15 5 -4 9 -13 9
-21z m-1173 -6 c-3 -8 -6 -5 -6 6 -1 11 2 17 5 13 3 -3 4 -12 1 -19z m1111 4
c21 -16 21 -19 7 -40 -21 -29 -37 -28 -29 2 3 13 1 27 -5 30 -6 4 -11 2 -11
-3 0 -6 -5 -11 -10 -11 -6 0 -5 8 2 20 15 24 17 24 46 2z m-1064 -26 c2 -15
-1 -29 -5 -32 -5 -3 -9 12 -9 32 0 41 10 41 14 0z m673 28 c-3 -3 -12 -4 -19
-1 -8 3 -5 6 6 6 11 1 17 -2 13 -5z m-697 -36 c0 -18 -2 -20 -9 -8 -6 8 -7 18
-5 22 9 14 14 9 14 -14z m887 -10 c-3 -7 -5 -2 -5 12 0 14 2 19 5 13 2 -7 2
-19 0 -25z m-87 2 c9 -16 8 -18 -5 -14 -8 4 -15 12 -15 20 0 20 7 17 20 -6z
m347 6 c-3 -8 -2 -29 3 -47 8 -25 6 -36 -10 -56 -16 -20 -19 -21 -19 -6 0 10
-4 35 -9 57 -9 34 -8 39 9 43 10 3 16 9 13 14 -3 5 0 9 6 9 7 0 10 -6 7 -14z
m-1210 -11 c0 -8 -4 -15 -9 -15 -4 0 -8 7 -8 15 0 8 4 15 8 15 5 0 9 -7 9 -15z
m1014 -24 c7 11 9 11 9 -3 0 -22 -14 -23 -35 -2 -13 14 -14 19 -3 25 9 6 14 2
16 -13 3 -17 6 -18 13 -7z m53 20 c3 -5 -1 -14 -9 -21 -13 -10 -15 -9 -15 9 0
21 14 28 24 12z m-844 -35 c-14 -14 -22 -2 -14 18 5 14 9 15 15 4 4 -7 4 -17
-1 -22z m-100 -8 c0 -5 -4 -8 -10 -8 -5 0 -10 10 -10 23 0 18 2 19 10 7 5 -8
10 -18 10 -22z m-125 12 c3 -5 1 -10 -4 -10 -6 0 -11 5 -11 10 0 6 2 10 4 10
3 0 8 -4 11 -10z m582 -22 c-3 -8 -6 -5 -6 6 -1 11 2 17 5 13 3 -3 4 -12 1
-19z m-520 -8 c-1 -20 -9 -25 -20 -13 -4 3 -2 12 4 20 15 18 18 17 16 -7z
m586 5 c-3 -9 -8 -14 -10 -11 -3 3 -2 9 2 15 9 16 15 13 8 -4z m-419 -10 c3
-8 1 -15 -4 -15 -6 0 -10 7 -10 15 0 8 2 15 4 15 2 0 6 -7 10 -15z m176 -30
c0 -3 -6 -5 -13 -5 -14 0 -39 35 -30 44 6 6 43 -27 43 -39z m-430 -9 c0 -17
-9 -20 -26 -8 -14 9 -27 45 -14 37 6 -3 10 -1 10 5 0 7 6 5 15 -4 8 -8 15 -22
15 -30z m160 29 c10 -12 9 -16 -5 -21 -16 -6 -34 9 -35 29 0 13 27 8 40 -8z
m1264 -11 c3 -8 2 -12 -4 -9 -6 3 -10 10 -10 16 0 14 7 11 14 -7z m-1360 0
c18 -7 21 -39 5 -49 -16 -11 -25 5 -9 16 13 8 12 12 -4 24 -21 16 -18 19 8 9z
m966 -4 c0 -5 -4 -10 -9 -10 -6 0 -13 5 -16 10 -3 6 1 10 9 10 9 0 16 -4 16
-10z m260 -21 c0 -11 -4 -18 -10 -14 -5 3 -7 12 -3 20 7 21 13 19 13 -6z
m-796 -24 c9 -19 17 -38 17 -42 1 -5 5 -16 10 -25 7 -14 6 -18 -6 -18 -9 0
-15 6 -13 12 3 7 -4 17 -15 23 -20 10 -32 55 -16 55 5 0 6 7 3 15 -12 29 4 14
20 -20z m760 19 c9 -24 7 -27 -9 -10 -17 17 -19 26 -6 26 5 0 12 -7 15 -16z
m218 -6 c-7 -7 -12 -8 -12 -2 0 6 3 14 7 17 3 4 9 5 12 2 2 -3 -1 -11 -7 -17z
m-1347 2 c-3 -5 1 -10 9 -10 20 0 20 -7 2 -26 -16 -16 -30 -19 -21 -5 3 5 1
12 -5 16 -5 3 -10 1 -10 -6 0 -7 -3 -10 -6 -7 -7 7 18 48 29 48 4 0 5 -4 2
-10z m61 -35 c1 -14 -2 -25 -7 -25 -4 0 -6 -8 -2 -17 5 -15 3 -14 -10 2 -18
22 -23 50 -7 40 6 -3 7 1 4 9 -4 10 -1 16 7 16 8 0 15 -11 15 -25z m1254 15
c0 -5 -7 -10 -15 -10 -16 0 -21 -16 -6 -22 5 -1 1 -23 -9 -48 -18 -44 -18 -45
-25 -17 -9 33 0 70 21 91 18 18 34 21 34 6z m-1452 -71 c-2 -45 -3 -47 -19
-18 -8 17 -8 20 1 14 8 -5 11 -3 8 6 -3 8 -12 13 -19 11 -8 -2 -11 0 -7 3 4 4
3 15 -2 25 -13 25 0 33 22 14 12 -12 17 -29 16 -55z m258 55 c-4 -12 -2 -15 9
-10 8 3 19 -2 24 -13 8 -14 6 -17 -11 -16 -22 2 -43 29 -33 45 10 16 18 12 11
-6z m1242 -14 c3 -21 2 -22 -12 -11 -19 16 -21 44 -3 39 6 -3 14 -15 15 -28z
m27 21 c3 -5 1 -12 -5 -16 -5 -3 -10 1 -10 9 0 18 6 21 15 7z m-480 -20 c3 -5
1 -12 -5 -16 -5 -3 -10 1 -10 9 0 18 6 21 15 7z m292 -23 c-3 -7 -5 -2 -5 12
0 14 2 19 5 13 2 -7 2 -19 0 -25z m-167 12 c0 -5 -5 -10 -11 -10 -5 0 -7 5 -4
10 3 6 8 10 11 10 2 0 4 -4 4 -10z m110 -16 c0 -8 -4 -14 -10 -14 -5 0 -10 9
-10 21 0 11 5 17 10 14 6 -3 10 -13 10 -21z m280 11 c0 -1 -6 -8 -14 -15 -12
-9 -15 -8 -13 8 0 12 6 18 14 15 7 -3 13 -6 13 -8z m-1399 -16 c5 -8 9 -21 9
-29 -1 -12 -3 -11 -11 3 -6 9 -14 15 -18 12 -5 -2 -11 4 -14 14 -5 22 20 23
34 0z m74 1 c7 -21 0 -40 -16 -40 -5 0 -8 14 -7 30 3 34 14 39 23 10z m125 10
c0 -5 -2 -10 -4 -10 -3 0 -8 5 -11 10 -3 6 -1 10 4 10 6 0 11 -4 11 -10z
m1020 -25 c0 -13 -4 -27 -10 -30 -5 -3 -9 9 -8 29 1 39 18 39 18 1z m-1032
-11 c-4 -3 -12 5 -18 18 -12 22 -12 22 6 6 10 -10 15 -20 12 -24z m38 11 c-2
-14 -16 -22 -16 -10 0 3 0 12 0 21 0 8 4 13 9 10 5 -4 8 -13 7 -21z m1103 10
c7 3 8 0 5 -10 -5 -12 -9 -13 -20 -4 -11 9 -18 6 -34 -12 l-20 -24 17 32 c13
23 21 29 30 21 7 -5 17 -7 22 -3z m-277 -12 c-5 -10 -11 -25 -14 -33 -3 -8 -7
-10 -11 -4 -3 6 1 20 9 32 18 26 28 29 16 5z m-1159 -6 c4 3 7 3 7 0 0 -3 -9
-11 -19 -17 -17 -8 -20 -7 -18 9 1 14 5 17 13 11 6 -6 14 -7 17 -3z m1246 -55
c9 -17 9 -22 -1 -22 -8 0 -20 15 -28 33 -7 17 -15 37 -18 42 -8 18 35 -31 47
-53z m-1035 33 c-4 -8 -10 -12 -15 -9 -11 6 -2 24 11 24 5 0 7 -7 4 -15z
m1261 5 c-3 -5 -11 -10 -16 -10 -6 0 -7 5 -4 10 3 6 11 10 16 10 6 0 7 -4 4
-10z m-308 -22 c-3 -8 -6 -5 -6 6 -1 11 2 17 5 13 3 -3 4 -12 1 -19z m-1146
-20 l22 -33 -27 27 c-24 25 -32 38 -22 38 3 0 15 -15 27 -32z m-112 13 c9 -6
10 -11 2 -15 -6 -4 -9 -23 -7 -44 3 -20 2 -28 -1 -18 -3 11 -8 15 -12 8 -10
-17 -37 10 -44 46 -6 30 -5 32 21 32 15 0 33 -4 41 -9z m371 -11 c0 -5 -4 -10
-10 -10 -5 0 -10 5 -10 10 0 6 5 10 10 10 6 0 10 -4 10 -10z m370 0 c0 -5 -2
-10 -4 -10 -3 0 -8 5 -11 10 -3 6 -1 10 4 10 6 0 11 -4 11 -10z m-835 -10 c-3
-5 -1 -10 4 -10 6 0 11 -5 11 -10 0 -7 -7 -7 -20 0 -20 11 -19 30 1 30 6 0 7
-4 4 -10z m565 6 c0 -3 -4 -8 -10 -11 -5 -3 -10 -1 -10 4 0 6 5 11 10 11 6 0
10 -2 10 -4z m620 0 c0 -3 -4 -8 -10 -11 -5 -3 -10 -1 -10 4 0 6 5 11 10 11 6
0 10 -2 10 -4z m392 -1 c8 -8 -35 -54 -44 -49 -11 7 13 54 27 54 6 0 14 -2 17
-5z m96 -30 c0 -19 -4 -35 -9 -35 -9 0 -12 10 -12 42 0 10 -3 15 -8 13 -4 -3
-10 -1 -14 5 -4 6 4 10 18 10 22 0 25 -4 25 -35z m-1310 -8 c4 1 9 -1 11 -3 2
-2 -5 -4 -17 -4 -12 0 -22 2 -22 4 0 2 -3 13 -6 23 -5 16 -4 16 11 -2 9 -11
19 -19 23 -18z m693 -8 c-9 -22 -10 -22 -10 -3 -1 11 2 24 6 27 12 12 14 0 4
-24z m259 10 c0 -4 -7 -6 -15 -3 -8 4 -15 10 -15 15 0 4 7 6 15 3 8 -4 15 -10
15 -15z m274 -11 c-10 -15 -11 -19 -13 -50 -1 -19 -3 -20 -11 -8 -8 13 -10 13
-10 -2 0 -21 -16 -32 -32 -22 -8 5 -6 11 6 20 13 9 14 14 5 19 -8 6 -1 17 21
37 33 28 50 31 34 6z m40 -2 c-3 -9 -10 -16 -15 -16 -5 0 -4 9 3 20 14 22 21
20 12 -4z m266 10 c0 -2 -12 -12 -27 -21 l-28 -18 19 21 c17 20 36 29 36 18z
m-1807 -54 c15 -7 25 -18 22 -23 -11 -16 -32 -10 -43 14 l-11 22 -1 -25 c-4
-45 -5 -50 -13 -50 -4 -1 -15 4 -25 9 -9 6 -12 11 -4 11 6 0 12 4 12 9 0 5 -8
7 -19 4 -27 -7 -31 7 -15 46 l14 33 28 -18 c15 -10 39 -24 55 -32z m577 38 c0
-5 -4 -10 -9 -10 -6 0 -13 5 -16 10 -3 6 1 10 9 10 9 0 16 -4 16 -10z m-390
-21 c0 -5 -4 -9 -10 -9 -5 0 -10 7 -10 16 0 8 5 12 10 9 6 -3 10 -10 10 -16z
m1607 -11 c-3 -8 -6 -5 -6 6 -1 11 2 17 5 13 3 -3 4 -12 1 -19z m-1757 2 c0
-5 -2 -10 -4 -10 -3 0 -8 5 -11 10 -3 6 -1 10 4 10 6 0 11 -4 11 -10z m1707
-12 c2 -16 0 -19 -6 -9 -7 11 -11 9 -20 -8 -14 -24 -27 -27 -34 -7 -4 10 -1
13 7 10 8 -3 16 4 19 15 7 28 32 27 34 -1z m-1642 2 c3 -5 2 -10 -4 -10 -5 0
-13 5 -16 10 -3 6 -2 10 4 10 5 0 13 -4 16 -10z m-310 -10 c3 -5 1 -10 -4 -10
-6 0 -11 5 -11 10 0 6 2 10 4 10 3 0 8 -4 11 -10z m599 -2 c24 -10 24 -12 8
-25 -15 -12 -14 -12 9 -4 23 8 31 5 58 -23 l31 -32 -39 -10 c-39 -11 -65 -6
-59 12 4 14 -25 54 -39 54 -14 0 -18 22 -6 33 8 9 8 9 37 -5z m-174 -8 c0 -5
-2 -10 -4 -10 -3 0 -8 5 -11 10 -3 6 -1 10 4 10 6 0 11 -4 11 -10z m66 -19
c-9 -19 -12 -21 -14 -8 -2 9 -8 17 -13 17 -6 0 -8 4 -5 8 2 4 13 8 24 8 17 0
18 -3 8 -25z m1497 -8 c-4 -10 -9 -11 -16 -4 -5 5 -7 18 -3 28 6 14 9 15 16 4
4 -8 6 -21 3 -28z m-1253 -5 c0 -5 -4 -8 -10 -8 -5 0 -10 5 -10 11 0 6 -9 8
-21 4 -19 -6 -20 -5 -8 7 10 12 18 13 31 4 10 -6 18 -14 18 -18z m295 22 c3
-5 2 -10 -4 -10 -5 0 -13 5 -16 10 -3 6 -2 10 4 10 5 0 13 -4 16 -10z m482
-11 c2 -16 -1 -19 -9 -11 -5 5 -7 15 -4 21 10 15 12 14 13 -10z m333 -21 c0
-10 -7 -18 -16 -18 -11 0 -14 5 -10 16 3 9 6 23 6 32 0 15 2 15 10 2 5 -8 10
-23 10 -32z m-1527 -61 c41 -45 45 -57 21 -57 -10 0 -14 6 -11 14 3 8 -1 20
-9 26 -18 16 -18 3 1 -34 17 -32 14 -42 -9 -33 -9 4 -13 13 -10 22 5 11 -2 15
-27 16 -19 0 -28 3 -21 6 10 4 8 9 -7 20 -24 16 -29 45 -6 37 8 -4 15 -1 15 5
0 6 -9 11 -19 11 -14 0 -19 6 -16 20 8 40 18 44 39 16 12 -15 38 -46 59 -69z
m-8 75 c-3 -3 -11 0 -18 7 -9 10 -8 11 6 5 10 -3 15 -9 12 -12z m762 -2 c-3
-11 -1 -20 3 -20 5 0 8 -9 7 -19 0 -11 -6 -17 -14 -14 -20 8 -16 73 5 73 2 0
2 -9 -1 -20z m638 10 c3 -5 1 -10 -4 -10 -6 0 -11 5 -11 10 0 6 2 10 4 10 3 0
8 -4 11 -10z m165 -6 c0 -8 -5 -12 -10 -9 -6 4 -8 11 -5 16 9 14 15 11 15 -7z
m-326 -9 c-4 -8 -8 -15 -10 -15 -2 0 -4 7 -4 15 0 8 4 15 10 15 5 0 7 -7 4
-15z m-194 -5 c0 -5 -2 -10 -4 -10 -3 0 -8 5 -11 10 -3 6 -1 10 4 10 6 0 11
-4 11 -10z m310 -4 c0 -18 -26 -40 -34 -27 -9 14 4 41 20 41 8 0 14 -6 14 -14z
m-1649 -13 c13 -15 12 -15 -8 -4 -24 12 -29 21 -14 21 5 0 15 -7 22 -17z m38
-10 c0 -25 -1 -26 -9 -8 -12 27 -12 35 0 35 6 0 10 -12 9 -27z m311 -27 c0
-13 -28 -5 -34 10 -14 35 -6 47 14 21 11 -14 20 -28 20 -31z m180 44 c0 -5 -4
-10 -10 -10 -5 0 -10 5 -10 10 0 6 5 10 10 10 6 0 10 -4 10 -10z m950 -4 c0
-7 -6 -19 -14 -25 -11 -9 -12 -6 -8 14 5 26 22 35 22 11z m253 -6 c-3 -11 -10
-23 -16 -27 -5 -3 -8 -2 -5 3 3 5 8 17 11 27 9 24 16 22 10 -3z m57 11 c0 -6
-4 -12 -8 -15 -5 -3 -9 1 -9 9 0 8 4 15 9 15 4 0 8 -4 8 -9z m85 -16 c0 -14
-6 -25 -12 -25 -16 0 -16 6 -3 31 14 25 15 24 15 -6z m-1704 -14 c6 11 11 11
21 1 8 -8 9 -15 1 -23 -15 -15 -53 10 -45 30 5 13 7 13 10 -3 3 -15 6 -16 13
-5z m1801 -3 c-7 -7 -12 -8 -12 -2 0 6 3 14 7 17 3 4 9 5 12 2 2 -3 -1 -11 -7
-17z m-47 2 c3 -5 1 -10 -4 -10 -6 0 -11 5 -11 10 0 6 2 10 4 10 3 0 8 -4 11
-10z m-1127 -31 c-3 -8 -7 -3 -11 10 -4 17 -3 21 5 13 5 -5 8 -16 6 -23z m312
21 c0 -5 -2 -10 -4 -10 -3 0 -8 5 -11 10 -3 6 -1 10 4 10 6 0 11 -4 11 -10z
m170 0 c0 -5 -2 -10 -4 -10 -3 0 -8 5 -11 10 -3 6 -1 10 4 10 6 0 11 -4 11
-10z m420 -4 c0 -8 -4 -18 -10 -21 -5 -3 -10 3 -10 14 0 12 5 21 10 21 6 0 10
-6 10 -14z m84 -1 c-4 -8 -10 -12 -15 -9 -5 3 -9 0 -9 -5 0 -6 6 -11 13 -11 9
0 12 -10 9 -30 -4 -28 -22 -44 -22 -19 0 5 -5 7 -10 4 -6 -4 -8 -10 -5 -14 2
-5 -4 -18 -14 -30 -19 -22 -40 -30 -24 -8 5 6 8 24 7 39 -2 19 3 29 17 33 10
4 19 13 19 20 0 18 -17 28 -23 15 -3 -6 -4 -5 -3 2 2 7 10 13 19 13 8 0 19 4
23 8 13 12 24 8 18 -8z m-1806 -21 c1 -15 8 -34 15 -42 6 -8 11 -18 9 -21 -2
-3 5 -8 15 -10 22 -4 53 -35 53 -53 0 -9 3 -9 10 2 8 12 12 11 32 -6 13 -12
29 -19 36 -17 6 3 12 0 12 -7 0 -6 -4 -9 -8 -6 -15 9 -35 -12 -28 -30 6 -15 9
-16 16 -4 15 24 41 -6 30 -35 -5 -14 -5 -26 3 -34 8 -8 8 -11 -2 -11 -18 0
-54 20 -72 42 -9 10 -21 18 -28 18 -6 0 -11 9 -11 20 0 11 -6 20 -12 20 -12 0
-51 71 -48 85 0 3 -8 14 -18 23 -20 17 -36 74 -25 86 12 12 19 6 21 -20z m168
-1 c-7 -7 -26 7 -26 19 0 6 6 6 15 -2 9 -7 13 -15 11 -17z m764 23 c0 -3 -4
-8 -10 -11 -5 -3 -10 -1 -10 4 0 6 5 11 10 11 6 0 10 -2 10 -4z m-885 -28 c11
-13 19 -26 17 -30 -1 -5 3 -8 8 -8 6 0 10 -4 10 -10 0 -25 -30 -6 -48 30 -22
45 -17 52 13 18z m1881 4 c-8 -8 -19 -11 -25 -8 -20 13 -12 26 14 24 21 -2 23
-4 11 -16z m-1249 -25 c-6 -19 -34 -20 -41 -2 -3 9 -4 21 0 26 8 13 46 -10 41
-24z m117 8 c8 -22 -16 -30 -30 -10 -7 10 -11 22 -8 26 7 11 31 0 38 -16z
m361 15 c3 -5 1 -10 -4 -10 -6 0 -11 5 -11 10 0 6 2 10 4 10 3 0 8 -4 11 -10z
m461 -5 c-4 -24 -16 -30 -16 -7 0 12 4 22 9 22 5 0 8 -7 7 -15z m272 3 c15
-15 16 -28 2 -28 -5 0 -10 7 -10 16 0 8 -4 12 -10 9 -5 -3 -10 -1 -10 4 0 14
13 14 28 -1z m105 -30 c-9 -16 -20 -7 -18 15 4 32 6 34 14 12 5 -11 7 -23 4
-27z m-1759 23 c4 -5 -3 -7 -14 -4 -23 6 -26 13 -6 13 8 0 17 -4 20 -9z m467
-14 c-10 -9 -11 -8 -5 6 3 10 9 15 12 12 3 -3 0 -11 -7 -18z m153 -3 c6 -15 4
-15 -11 -3 -10 7 -20 15 -22 16 -2 2 3 3 11 3 9 0 19 -7 22 -16z m36 -9 c13
-14 19 -25 14 -25 -8 1 -50 50 -41 50 2 0 14 -11 27 -25z m756 -21 l-15 -29
-1 31 c0 34 9 49 23 35 5 -5 3 -20 -7 -37z m-506 4 c0 -7 -5 -6 -13 1 -8 6
-18 7 -22 3 -5 -4 -5 -2 -1 5 8 14 36 6 36 -9z m401 -1 c-10 -9 -11 -8 -5 6 3
10 9 15 12 12 3 -3 0 -11 -7 -18z m-1031 -8 c0 -6 -4 -7 -10 -4 -5 3 -10 11
-10 16 0 6 5 7 10 4 6 -3 10 -11 10 -16z m1163 2 c-6 -23 -43 -60 -43 -43 0 7
4 12 8 12 5 0 14 11 20 25 14 30 22 33 15 6z m-1063 -21 c0 -13 -5 -17 -20
-13 -23 6 -25 14 -8 31 14 14 28 6 28 -18z m515 10 c3 -5 1 -10 -4 -10 -6 0
-11 5 -11 10 0 6 2 10 4 10 3 0 8 -4 11 -10z m-905 -21 c0 -6 -4 -7 -10 -4 -5
3 -10 11 -10 16 0 6 5 7 10 4 6 -3 10 -11 10 -16z m150 5 c0 -8 -4 -12 -10 -9
-5 3 -10 10 -10 16 0 5 5 9 10 9 6 0 10 -7 10 -16z m440 6 c13 -8 13 -10 -2
-10 -9 0 -20 5 -23 10 -8 13 5 13 25 0z m55 -8 c-3 -3 -11 0 -18 7 -9 10 -8
11 6 5 10 -3 15 -9 12 -12z m1065 -7 c0 -8 -4 -16 -9 -19 -5 -3 -8 5 -7 18 1
25 16 26 16 1z m-741 -6 c-14 -8 -29 -3 -29 11 0 4 9 6 21 3 15 -4 17 -8 8
-14z m-779 -4 c0 -8 -2 -15 -4 -15 -2 0 -6 7 -10 15 -3 8 -1 15 4 15 6 0 10
-7 10 -15z m1380 -9 c0 -13 -7 -29 -15 -36 -13 -11 -15 -8 -13 16 2 35 6 44
19 44 5 0 9 -11 9 -24z m-680 4 c0 -5 -2 -10 -4 -10 -3 0 -8 5 -11 10 -3 6 -1
10 4 10 6 0 11 -4 11 -10z m56 -28 c-4 -3 -11 0 -16 8 -15 24 -11 33 6 15 9
-9 13 -19 10 -23z m154 22 c0 -8 -5 -12 -10 -9 -6 4 -8 11 -5 16 9 14 15 11
15 -7z m810 -16 c0 -5 -15 -15 -32 -23 -18 -7 -42 -25 -52 -39 -10 -14 -25
-26 -33 -26 -10 0 -13 -6 -9 -16 6 -15 4 -15 -10 -3 -15 12 -14 15 10 24 15 6
24 14 20 18 -9 9 49 57 64 52 7 -3 12 5 12 22 0 21 2 24 15 13 8 -7 15 -17 15
-22z m-1960 12 c0 -5 -2 -10 -4 -10 -3 0 -8 5 -11 10 -3 6 -1 10 4 10 6 0 11
-4 11 -10z m1382 -12 c-3 -15 -2 -19 7 -14 9 6 11 0 7 -21 -2 -15 -5 -34 -5
-41 -1 -7 -5 -10 -11 -7 -11 7 -14 88 -3 98 10 11 11 8 5 -15z m158 1 c0 -5
-9 -9 -20 -9 -19 0 -26 11 -14 23 8 8 34 -3 34 -14z m348 -4 c-3 -3 -9 2 -12
12 -6 14 -5 15 5 6 7 -7 10 -15 7 -18z m-1383 5 c3 -5 1 -10 -4 -10 -6 0 -11
5 -11 10 0 6 2 10 4 10 3 0 8 -4 11 -10z m1515 -11 c0 -5 -4 -9 -10 -9 -5 0
-16 -13 -25 -30 -9 -16 -20 -30 -26 -30 -6 0 -6 6 0 19 6 10 7 22 3 26 -4 5
-1 5 6 1 8 -5 12 1 12 17 0 20 4 24 20 20 11 -3 20 -9 20 -14z m-1185 1 c3 -5
1 -10 -4 -10 -6 0 -11 5 -11 10 0 6 2 10 4 10 3 0 8 -4 11 -10z m738 3 c-9 -3
-10 -10 -3 -24 8 -15 7 -19 -5 -19 -13 0 -15 17 -6 48 1 1 7 2 14 1 9 0 9 -2
0 -6z m-1459 -22 c19 -11 36 -18 38 -16 1 2 10 -4 17 -13 16 -16 10 -16 -44 3
-18 6 -18 5 -2 -5 9 -6 17 -17 17 -25 0 -14 37 -45 53 -45 5 0 6 8 2 18 -5 13
-4 14 6 5 9 -9 9 -16 1 -26 -14 -16 -66 -11 -82 8 -6 8 -19 11 -28 8 -10 -3
-13 -2 -6 4 23 18 4 100 -20 85 -5 -3 -6 0 -2 6 9 15 9 15 50 -7z m590 -23
c-1 -18 -3 -39 -3 -45 -1 -20 -18 -15 -24 7 -3 13 -10 18 -21 14 -9 -3 -16 -1
-16 6 0 6 5 8 10 5 7 -4 9 2 5 18 -6 21 -3 26 17 29 33 6 36 2 32 -34z m456
22 c0 -17 -26 -17 -27 1 -1 12 3 16 13 12 8 -3 14 -9 14 -13z m549 -24 c-2 -2
-13 8 -23 22 l-19 27 24 -22 c12 -12 21 -24 18 -27z m-1195 18 c5 -14 4 -15
-9 -4 -17 14 -19 20 -6 20 5 0 12 -7 15 -16z m102 8 c-10 -10 -45 -12 -50 -3
-3 4 8 8 25 9 17 0 28 -2 25 -6z m656 -14 c-7 -7 -12 -8 -12 -2 0 6 3 14 7 17
3 4 9 5 12 2 2 -3 -1 -11 -7 -17z m-1198 -14 c3 -8 2 -12 -4 -9 -6 3 -10 10
-10 16 0 14 7 11 14 -7z m516 -30 c0 -1 -13 3 -29 9 -16 6 -27 16 -24 23 3 9
12 6 29 -9 13 -11 24 -22 24 -23z m150 36 c0 -5 -2 -10 -4 -10 -3 0 -8 5 -11
10 -3 6 -1 10 4 10 6 0 11 -4 11 -10z m260 -9 c5 -11 12 -37 15 -58 3 -26 2
-32 -4 -18 -5 11 -7 23 -4 27 2 4 -5 13 -17 20 -20 13 -28 48 -10 48 5 0 14
-9 20 -19z m28 1 c6 -18 -15 -14 -22 4 -4 10 -1 14 6 12 6 -2 14 -10 16 -16z
m153 11 c0 -5 2 -16 4 -25 2 -11 -2 -15 -11 -11 -8 3 -11 9 -8 14 3 5 0 9 -6
9 -6 0 -8 5 -5 10 7 12 25 13 26 3z m489 -5 c0 -7 -4 -19 -9 -26 -7 -11 -9
-11 -14 2 -4 9 -2 16 4 16 6 0 7 5 4 10 -3 6 -1 10 4 10 6 0 11 -6 11 -12z
m520 8 c0 -3 -4 -8 -10 -11 -5 -3 -10 -1 -10 4 0 6 5 11 10 11 6 0 10 -2 10
-4z m-1310 -23 c0 -3 -8 -2 -17 2 -15 5 -16 4 -5 -6 14 -15 16 -39 3 -39 -12
0 -24 37 -16 49 5 10 35 4 35 -6z m900 13 c0 -3 -4 -8 -10 -11 -5 -3 -10 -1
-10 4 0 6 5 11 10 11 6 0 10 -2 10 -4z m159 -12 c-10 -13 -10 -17 0 -24 10 -6
10 -9 1 -15 -6 -4 -16 -3 -22 3 -12 12 6 52 24 52 6 0 6 -6 -3 -16z m75 1 c3
-8 1 -15 -4 -15 -6 0 -10 7 -10 15 0 8 2 15 4 15 2 0 6 -7 10 -15z m-1255 -31
c-12 -16 -12 -17 4 -11 9 3 17 2 17 -3 0 -6 -5 -10 -11 -10 -6 0 -9 -8 -6 -19
3 -14 0 -17 -14 -14 -14 4 -18 14 -16 44 1 22 4 33 9 26 5 -8 8 -6 8 8 0 14 3
16 12 7 8 -8 8 -15 -3 -28z m205 14 c26 -37 19 -57 -9 -23 -13 17 -24 33 -25
38 0 15 19 6 34 -15z m1196 9 c0 -8 -7 -14 -15 -14 -11 0 -12 4 -4 14 6 7 13
13 15 13 2 0 4 -6 4 -13z m-2250 -31 c0 -3 -7 -3 -15 0 -8 4 -15 13 -15 21 0
12 2 12 15 -1 8 -8 15 -17 15 -20z m1156 -3 c-11 -11 -19 6 -11 24 8 17 8 17
12 0 3 -10 2 -21 -1 -24z m33 -13 c0 -10 -3 -8 -9 5 -12 27 -12 43 0 25 5 -8
9 -22 9 -30z m-1037 -1 c5 -30 5 -30 -15 -11 -11 11 -16 25 -13 31 12 20 24
12 28 -20z m198 21 c0 -5 -2 -10 -4 -10 -3 0 -8 5 -11 10 -3 6 -1 10 4 10 6 0
11 -4 11 -10z m323 -10 c5 -4 2 -10 -5 -12 -7 -3 -22 4 -33 15 -20 19 -20 19
5 12 14 -4 29 -11 33 -15z m255 -10 c8 -13 8 -21 1 -25 -14 -9 -39 14 -39 36
0 22 21 16 38 -11z m595 15 c-3 -9 -8 -14 -10 -11 -3 3 -2 9 2 15 9 16 15 13
8 -4z m-547 -22 c-10 -10 -19 5 -10 18 6 11 8 11 12 0 2 -7 1 -15 -2 -18z
m297 7 c10 -12 9 -12 -5 -1 -16 12 -18 11 -18 -7 0 -14 5 -20 14 -16 8 3 17 0
22 -7 5 -9 2 -10 -11 -5 -15 5 -16 4 -6 -8 9 -11 9 -15 -1 -18 -10 -4 -10 -8
1 -22 12 -14 12 -16 -2 -11 -8 4 -18 2 -22 -4 -10 -17 -35 -13 -35 5 0 11 6
14 23 9 20 -6 21 -5 5 8 -19 15 -24 47 -8 47 6 0 10 5 10 11 0 5 -4 7 -10 4
-5 -3 -10 3 -10 14 0 24 32 24 53 1z m617 16 c0 -3 -4 -8 -10 -11 -5 -3 -10
-1 -10 4 0 6 5 11 10 11 6 0 10 -2 10 -4z m226 -11 c-22 -17 -56 -20 -56 -6 0
12 19 19 50 20 24 0 24 0 6 -14z m68 -8 c-1 -13 2 -14 17 -6 11 5 19 14 19 20
0 6 4 7 10 4 6 -4 5 -13 -2 -25 -7 -11 -14 -17 -16 -15 -3 2 -11 -2 -19 -10
-20 -20 -50 -21 -34 -1 9 11 9 16 0 22 -7 4 -9 3 -5 -4 3 -6 -6 -20 -21 -31
-16 -11 -33 -25 -40 -31 -8 -7 -14 -6 -19 2 -4 7 -2 14 4 16 7 2 12 10 12 18
0 8 6 14 13 14 7 0 23 12 36 26 23 27 47 27 45 1z m-2204 3 c0 -5 -5 -10 -11
-10 -5 0 -7 5 -4 10 3 6 8 10 11 10 2 0 4 -4 4 -10z m100 -50 c22 0 44 -25 37
-44 -3 -8 1 -17 9 -20 8 -3 14 -1 14 4 0 6 7 10 17 10 9 0 14 -3 10 -6 -3 -3
-2 -16 3 -29 12 -31 0 -40 -18 -14 -9 14 -17 17 -21 10 -10 -15 -71 15 -71 35
0 8 -3 13 -7 11 -15 -9 -53 13 -53 30 0 14 -2 15 -9 5 -6 -11 -10 -10 -15 3
-4 12 0 18 13 22 13 3 18 10 13 21 -4 11 5 7 27 -10 18 -16 41 -28 51 -28z
m1083 31 c2 -11 1 -35 -3 -53 l-8 -33 0 35 c0 19 -3 43 -7 53 -4 9 -3 17 3 17
5 0 12 -9 15 -19z m492 10 c3 -5 1 -12 -5 -16 -5 -3 -10 -1 -10 5 0 6 -5 8
-11 5 -6 -4 -8 -13 -5 -20 2 -7 -2 -16 -10 -19 -18 -7 -19 19 -1 39 14 16 33
19 42 6z m85 -12 c0 -5 -4 -9 -8 -9 -5 0 -9 7 -9 15 0 8 4 12 9 9 4 -3 8 -9 8
-15z m260 11 c20 -12 23 -80 4 -73 -8 3 -12 9 -9 13 3 5 -4 6 -15 3 -11 -3
-20 -10 -20 -15 0 -5 5 -6 11 -2 6 4 5 -3 -2 -17 l-14 -24 -3 24 c-2 13 -12
26 -23 28 -11 3 -19 14 -19 26 0 11 3 18 6 14 3 -3 15 3 27 14 23 21 35 23 57
9z m-1780 -22 c0 -5 4 -7 9 -4 12 8 81 -22 81 -34 0 -6 -9 -6 -26 0 -38 15
-48 12 -28 -7 10 -10 27 -18 38 -18 14 0 20 -6 18 -17 -2 -13 2 -16 14 -11 11
4 15 3 10 -5 -3 -6 -2 -13 4 -17 6 -4 8 -10 5 -15 -3 -5 -1 -11 5 -15 13 -8
13 -25 0 -25 -5 0 -10 7 -10 15 0 9 -6 12 -15 9 -23 -9 -47 16 -41 42 4 16 2
22 -6 19 -19 -7 -44 16 -61 55 -11 25 -16 29 -16 15 -1 -17 -3 -17 -11 -5 -16
25 -12 39 10 33 11 -3 20 -10 20 -15z m1362 0 c-7 -7 -12 -8 -12 -2 0 6 3 14
7 17 3 4 9 5 12 2 2 -3 -1 -11 -7 -17z m238 12 c0 -5 -4 -10 -10 -10 -5 0 -10
5 -10 10 0 6 5 10 10 10 6 0 10 -4 10 -10z m55 0 c-3 -5 -2 -10 4 -10 6 0 8
-6 5 -13 -2 -7 2 -26 10 -42 14 -26 14 -31 -1 -47 -9 -10 -19 -15 -22 -12 -3
3 3 12 13 20 11 8 14 14 7 14 -7 0 -9 5 -6 10 3 6 2 10 -3 10 -12 0 -22 -24
-22 -51 0 -10 -5 -19 -11 -19 -6 0 -9 9 -6 20 3 10 0 21 -7 24 -7 3 -8 7 -1
13 19 15 35 62 24 69 -8 4 -7 9 2 15 18 11 22 11 14 -1z m165 -10 c0 -11 -2
-20 -4 -20 -2 0 -6 9 -9 20 -3 11 -1 20 4 20 5 0 9 -9 9 -20z m-2074 -15 c1
-8 -1 -15 -5 -15 -14 0 -20 12 -14 26 6 17 16 11 19 -11z m918 10 c3 -8 1 -15
-4 -15 -6 0 -10 7 -10 15 0 8 2 15 4 15 2 0 6 -7 10 -15z m194 -7 c7 -7 12
-16 12 -20 0 -15 -15 -8 -28 12 -13 22 -3 27 16 8z m-1238 -14 c0 -8 -4 -12
-10 -9 -5 3 -10 10 -10 16 0 5 5 9 10 9 6 0 10 -7 10 -16z m1287 -4 c-5 -31
-17 -36 -17 -7 0 15 4 27 10 27 5 0 9 -9 7 -20z m-777 -11 c6 -11 9 -25 6 -32
-2 -7 -5 -4 -5 6 -1 9 -8 17 -16 17 -8 0 -15 7 -15 15 0 22 17 18 30 -6z m320
17 c0 -3 -4 -8 -10 -11 -5 -3 -10 -1 -10 4 0 6 5 11 10 11 6 0 10 -2 10 -4z
m-720 -16 c12 -6 16 -17 13 -30 -4 -16 -8 -18 -19 -9 -11 9 -14 7 -14 -10 0
-19 -4 -21 -22 -15 l-23 6 24 -26 c14 -14 19 -26 12 -26 -6 0 -14 6 -17 14 -3
8 -11 13 -17 10 -7 -2 -18 5 -25 17 -12 19 -11 20 7 14 13 -4 21 -2 21 6 0 8
5 7 17 -2 15 -13 16 -12 10 9 -5 23 0 52 10 52 2 0 13 -4 23 -10z m788 -5 c12
-4 22 -14 22 -21 0 -8 5 -14 10 -14 6 0 10 -5 10 -12 0 -6 -13 0 -28 15 -28
27 -49 36 -37 17 10 -16 -1 -11 -18 8 -16 17 -16 19 0 16 10 -1 28 -5 41 -9z
m132 11 c0 -11 -19 -15 -25 -6 -3 5 1 10 9 10 9 0 16 -2 16 -4z m655 -17 c-4
-5 -1 -9 5 -9 6 0 8 -5 5 -10 -4 -6 -12 -7 -18 -4 -9 5 -8 3 0 -6 9 -9 9 -17
3 -26 -7 -8 -6 -13 5 -18 9 -3 14 -2 11 2 -2 4 0 14 5 22 8 12 9 11 7 -5 -2
-13 2 -19 12 -17 8 1 4 -7 -10 -18 -14 -11 -29 -19 -35 -19 -5 0 -4 3 3 6 6 2
12 9 12 14 0 6 -4 7 -10 4 -5 -3 -10 -3 -11 2 -7 54 -6 83 2 83 6 0 7 5 3 12
-4 7 -3 8 5 4 6 -4 9 -12 6 -17z m608 -3 c-10 -13 -22 -22 -26 -19 -9 6 21 43
35 43 5 0 1 -11 -9 -24z m-1686 8 c-3 -3 -12 -4 -19 -1 -8 3 -5 6 6 6 11 1 17
-2 13 -5z m1151 -8 c-7 -8 -15 -12 -17 -11 -5 6 10 25 20 25 5 0 4 -6 -3 -14z
m-1743 -17 c-10 -15 -25 -10 -19 6 4 8 10 12 15 9 5 -3 7 -10 4 -15z m1968 -7
c-3 -12 -10 -22 -15 -22 -5 0 -2 -7 7 -16 12 -13 14 -19 4 -28 -8 -8 -13 -8
-16 2 -3 6 -11 12 -19 12 -22 0 -17 19 13 50 31 33 35 33 26 2z m121 -35 c-6
-17 -44 -30 -44 -16 0 5 6 9 14 9 9 0 13 10 12 25 0 14 -5 25 -9 25 -5 0 -5 5
-1 11 9 16 36 -35 28 -54z m-1922 36 c18 -5 32 -32 23 -42 -3 -3 -10 1 -15 9
-9 15 -13 16 -45 19 -8 0 -15 8 -15 17 0 11 5 14 18 9 9 -4 25 -9 34 -12z
m405 0 c3 -7 -3 -9 -16 -6 -12 3 -21 1 -21 -6 0 -6 8 -11 18 -11 26 -1 52 -25
52 -49 0 -19 -4 -21 -22 -15 -13 3 -25 11 -26 15 -2 5 -8 7 -12 4 -5 -3 -7
-12 -3 -20 8 -23 -3 -18 -21 10 -12 18 -15 36 -10 61 6 30 10 35 32 32 14 -2
27 -8 29 -15z m1358 -2 c-3 -6 -11 -11 -17 -11 -6 0 -6 6 2 15 14 17 26 13 15
-4z m-840 -22 c-9 -14 -34 2 -28 17 4 11 9 12 19 3 8 -6 11 -15 9 -20z m184 4
c0 -25 -1 -26 -9 -8 -12 27 -12 35 0 35 6 0 10 -12 9 -27z m-145 1 c5 -14 4
-15 -9 -4 -17 14 -19 20 -6 20 5 0 12 -7 15 -16z m756 6 c0 -5 -5 -10 -11 -10
-5 0 -7 5 -4 10 3 6 8 10 11 10 2 0 4 -4 4 -10z m-1540 -21 c0 -6 -4 -7 -10
-4 -5 3 -10 11 -10 16 0 6 5 7 10 4 6 -3 10 -11 10 -16z m442 14 c-10 -4 -10
-8 -1 -19 7 -8 7 -14 1 -14 -12 0 -23 26 -15 34 4 3 11 6 17 5 6 0 5 -3 -2 -6z
m118 -8 c7 -8 9 -15 6 -15 -4 0 -14 7 -22 15 -9 8 -11 15 -6 15 5 0 15 -7 22
-15z m510 -14 c0 -16 -6 -31 -13 -34 -11 -4 -11 2 -3 29 13 42 16 42 16 5z
m-1297 12 c-7 -2 -19 -2 -25 0 -7 3 -2 5 12 5 14 0 19 -2 13 -5z m1277 -10 c0
-21 -15 -23 -28 -3 -10 16 -8 18 8 17 11 -1 20 -7 20 -14z m-1232 -11 c2 -7
-2 -10 -12 -6 -9 3 -16 11 -16 16 0 13 23 5 28 -10z m1462 8 c0 -5 -5 -10 -11
-10 -5 0 -7 5 -4 10 3 6 8 10 11 10 2 0 4 -4 4 -10z m263 -1 c-6 -6 -9 -18 -6
-25 6 -16 -5 -18 -26 -5 -10 7 -8 12 10 25 27 19 38 21 22 5z m-1768 -9 c4 -6
24 -20 47 -31 51 -26 44 -32 -20 -18 -36 9 -53 18 -61 36 -9 20 -8 23 9 23 10
0 22 -5 25 -10z m519 -10 c3 -11 8 -29 11 -39 6 -20 -16 -24 -32 -6 -4 4 -2 5
5 1 7 -4 12 -1 12 8 0 9 -4 16 -10 16 -5 0 -10 9 -10 20 0 11 4 20 9 20 5 0
12 -9 15 -20z m473 -2 c-3 -8 -6 -5 -6 6 -1 11 2 17 5 13 3 -3 4 -12 1 -19z
m48 12 c3 -5 1 -10 -4 -10 -6 0 -11 5 -11 10 0 6 2 10 4 10 3 0 8 -4 11 -10z
m-865 -10 c0 -5 -4 -10 -9 -10 -6 0 -13 5 -16 10 -3 6 1 10 9 10 9 0 16 -4 16
-10z m406 -28 c-9 -8 -26 10 -26 26 1 15 2 15 15 -2 8 -11 13 -21 11 -24z
m236 24 c4 -6 8 -17 8 -25 0 -11 -4 -11 -18 2 -10 10 -27 17 -38 17 -14 0 -15
3 -6 8 18 12 46 11 54 -2z m98 10 c0 -11 -19 -15 -25 -6 -3 5 1 10 9 10 9 0
16 -2 16 -4z m228 -21 c-3 -3 -9 2 -12 12 -6 14 -5 15 5 6 7 -7 10 -15 7 -18z
m559 3 c-3 -8 -6 -5 -6 6 -1 11 2 17 5 13 3 -3 4 -12 1 -19z m286 0 c-13 -12
-25 -19 -28 -16 -3 3 1 13 10 22 9 9 22 16 28 16 6 0 2 -10 -10 -22z m-1904
-2 c10 -12 8 -13 -8 -9 -12 3 -21 9 -21 14 0 14 16 11 29 -5z m141 4 c0 -5 -2
-10 -4 -10 -3 0 -8 5 -11 10 -3 6 -1 10 4 10 6 0 11 -4 11 -10z m485 2 c6 -4
11 -13 13 -20 2 -10 -2 -10 -18 0 -20 13 -27 28 -12 28 4 0 12 -4 17 -8z
m1082 -14 c-3 -8 -6 -5 -6 6 -1 11 2 17 5 13 3 -3 4 -12 1 -19z m-531 -25 c4
-21 12 -41 18 -45 7 -5 7 -8 -2 -8 -9 0 -11 -7 -7 -19 3 -11 2 -22 -4 -25 -9
-6 -29 68 -29 112 -1 36 17 25 24 -15z m324 27 c0 -5 -5 -10 -11 -10 -5 0 -7
5 -4 10 3 6 8 10 11 10 2 0 4 -4 4 -10z m335 0 c3 -5 1 -10 -4 -10 -6 0 -11 5
-11 10 0 6 2 10 4 10 3 0 8 -4 11 -10z m175 0 c0 -5 -5 -10 -11 -10 -5 0 -7 5
-4 10 3 6 8 10 11 10 2 0 4 -4 4 -10z m-1310 -10 c13 -9 13 -10 0 -10 -12 -1
-11 -3 3 -11 20 -12 23 -45 5 -52 -9 -3 -7 -10 7 -21 16 -13 17 -15 4 -16 -23
0 -65 35 -72 60 -4 16 -2 18 13 10 25 -14 26 -13 26 15 0 26 -20 35 -29 13 -3
-8 -6 -6 -6 5 -1 19 25 23 49 7z m830 0 c0 -5 -5 -10 -11 -10 -5 0 -7 5 -4 10
3 6 8 10 11 10 2 0 4 -4 4 -10z m359 -19 c-33 -28 -59 -35 -73 -21 -8 8 -7 10
6 5 11 -4 29 2 50 19 38 29 53 26 17 -3z m-752 -90 c5 -47 3 -62 -5 -57 -7 4
-12 17 -12 29 0 12 -3 49 -5 82 -4 48 -3 55 6 35 5 -14 13 -54 16 -89z m279
91 c1 -7 0 -8 -3 -2 -3 8 -9 7 -19 -1 -8 -6 -14 -7 -14 -2 0 24 31 28 36 5z
m248 -3 c-23 -25 -13 -34 12 -11 13 13 26 16 39 11 11 -4 16 -8 10 -9 -5 0 4
-7 20 -15 24 -11 26 -14 10 -14 -15 -1 -17 -3 -6 -10 10 -6 5 -12 -18 -24 -17
-8 -31 -11 -31 -6 0 5 -9 0 -19 -10 -12 -12 -27 -17 -40 -14 -24 6 -28 31 -6
39 16 6 21 34 6 34 -19 0 1 46 21 47 19 2 19 1 2 -18z m319 -14 c-6 -27 -17
-25 -34 7 -7 13 -7 18 -1 14 6 -3 13 -2 17 4 11 18 23 2 18 -25z m-1868 15 c3
-5 -1 -10 -9 -10 -8 0 -18 5 -21 10 -3 6 1 10 9 10 8 0 18 -4 21 -10z m65 0
c0 -5 -4 -10 -9 -10 -6 0 -13 5 -16 10 -3 6 1 10 9 10 9 0 16 -4 16 -10z m144
1 c4 -5 -1 -8 -9 -7 -21 3 -31 16 -12 16 9 0 18 -4 21 -9z m56 -5 c-7 -7 -14
-6 -21 1 -9 9 -7 12 9 10 14 -1 18 -5 12 -11z m124 -2 c3 -8 2 -12 -4 -9 -6 3
-10 10 -10 16 0 14 7 11 14 -7z m-250 -9 c3 -9 0 -15 -9 -15 -16 0 -27 14 -18
24 10 10 21 7 27 -9z m536 -16 c0 -5 11 -22 25 -37 14 -15 28 -35 31 -45 7
-21 -6 -39 -14 -18 -4 11 -6 11 -13 0 -7 -11 -9 -10 -9 4 0 10 -3 16 -8 14 -4
-3 -20 5 -36 18 -25 20 -28 27 -22 59 6 32 9 35 26 26 11 -6 20 -15 20 -21z
m167 4 c21 -32 27 -69 13 -78 -6 -3 -10 3 -10 15 0 12 -4 18 -10 15 -5 -3 -10
1 -10 10 0 9 4 13 10 10 6 -3 7 1 4 9 -3 9 -10 16 -16 16 -5 0 -6 -4 -3 -10 3
-5 2 -10 -4 -10 -15 0 -22 16 -15 34 9 23 21 20 41 -11z m292 15 c0 -7 -4 -22
-9 -33 -7 -17 -9 -15 -9 13 -1 17 4 32 9 32 6 0 10 -6 9 -12z m341 -9 c0 -14
-17 -10 -23 5 -4 10 -1 13 9 9 7 -3 14 -9 14 -14z m580 9 c0 7 4 11 9 7 6 -3
-13 -30 -42 -60 -36 -38 -53 -51 -59 -42 -6 8 -10 5 -14 -11 -4 -12 -11 -22
-18 -21 -26 3 -46 -2 -46 -12 0 -5 4 -8 9 -4 11 6 19 -22 13 -47 -2 -10 -12
-18 -21 -18 -14 0 -14 -2 -1 -11 11 -7 12 -12 3 -15 -7 -3 -10 -11 -7 -18 3
-8 -3 -16 -13 -20 -10 -3 -23 -9 -30 -12 -8 -3 -11 4 -8 23 1 15 8 27 13 26 6
-2 10 9 9 24 -1 14 4 28 12 31 10 3 11 0 5 -9 -7 -12 -5 -12 9 0 9 7 17 19 17
25 0 6 -5 4 -10 -4 -14 -21 -4 53 10 81 11 19 12 19 24 3 12 -16 13 -16 19 0
4 10 12 14 18 10 7 -4 9 -3 6 4 -4 5 -4 17 -1 26 5 12 10 13 25 6 23 -13 60
15 52 39 -4 14 -3 14 6 1 8 -11 11 -12 11 -2z m-2287 -5 c-9 -3 -10 -10 -3
-24 13 -23 4 -25 -16 -4 -8 8 -22 12 -32 9 -9 -2 -3 2 13 10 17 8 35 15 40 15
6 0 4 -3 -2 -6z m2065 -18 c2 -10 0 -15 -6 -11 -6 4 -8 -2 -5 -14 4 -15 0 -20
-13 -20 -11 0 -25 4 -32 9 -11 6 -8 13 12 28 14 11 22 24 18 28 -4 4 0 6 8 3
8 -3 17 -13 18 -23z m-1998 -1 c0 -14 -3 -14 -15 -4 -8 7 -15 14 -15 16 0 2 7
4 15 4 8 0 15 -7 15 -16z m457 1 c0 -8 -2 -15 -4 -15 -3 0 -11 7 -19 15 -14
13 -13 15 4 15 10 0 19 -7 19 -15z m443 4 c0 -5 -4 -7 -10 -4 -5 3 -10 1 -10
-5 0 -6 -5 -8 -11 -4 -8 4 -7 9 2 15 19 12 29 11 29 -2z m570 1 c0 -4 -7 -13
-15 -20 -8 -7 -13 -16 -10 -20 3 -5 0 -12 -6 -16 -8 -4 -9 -3 -5 4 4 7 2 12
-5 12 -8 0 -6 6 4 18 10 10 15 21 12 24 -3 2 2 5 10 5 8 0 15 -4 15 -7z m640
0 c0 -5 -5 -10 -11 -10 -5 0 -7 5 -4 10 3 6 8 10 11 10 2 0 4 -4 4 -10z
m-2002 -8 c9 9 12 9 12 1 0 -6 9 -9 20 -6 11 3 20 0 20 -6 0 -6 -15 -11 -34
-11 -19 0 -38 -4 -41 -10 -3 -6 1 -7 9 -4 14 6 21 -5 17 -28 0 -5 2 -7 7 -7
17 3 71 -14 67 -22 -7 -10 -45 -8 -45 3 0 4 -8 8 -17 8 -14 0 -15 -2 -5 -9 11
-6 9 -9 -6 -13 -15 -4 -18 -1 -14 18 4 25 -11 33 -24 12 -5 -7 -3 -8 6 -3 8 5
11 4 6 -3 -11 -18 -31 -4 -31 23 0 14 3 25 7 25 4 0 5 9 3 20 -3 17 -1 18 14
11 12 -7 22 -6 29 1z m288 -1 c-4 -5 0 -11 6 -14 7 -2 9 -8 5 -13 -9 -10 -28
16 -21 28 3 4 7 8 10 8 3 0 3 -4 0 -9z m1245 -53 c-15 -34 -19 -38 -20 -20 -1
27 30 92 36 75 2 -6 -5 -31 -16 -55z m279 52 c0 -5 -5 -10 -11 -10 -5 0 -7 5
-4 10 3 6 8 10 11 10 2 0 4 -4 4 -10z m-1430 -10 c0 -5 -2 -10 -4 -10 -3 0 -8
5 -11 10 -3 6 -1 10 4 10 6 0 11 -4 11 -10z m480 -21 c0 -18 -18 -9 -23 12 -4
16 -3 18 9 8 8 -6 14 -15 14 -20z m904 16 c-4 -8 -13 -15 -21 -15 -13 0 -13 3
-3 15 7 8 16 15 21 15 5 0 6 -7 3 -15z m-1642 -4 c4 -1 6 -9 5 -20 -1 -12 -7
-17 -19 -13 -11 2 -18 -1 -18 -9 0 -7 -7 -4 -16 9 -24 34 -15 40 48 33z m898
-1 c0 -5 -2 -10 -4 -10 -3 0 -8 5 -11 10 -3 6 -1 10 4 10 6 0 11 -4 11 -10z
m-1144 -8 c18 -12 22 -47 7 -61 -12 -11 -20 -9 -46 15 -18 16 -34 30 -36 32
-2 1 -2 4 1 8 3 3 18 -6 33 -20 16 -15 33 -26 39 -26 6 0 0 9 -13 19 -30 23
-17 55 15 33z m474 -2 c0 -5 -4 -10 -10 -10 -5 0 -10 5 -10 10 0 6 5 10 10 10
6 0 10 -4 10 -10z m100 -32 c0 -10 -11 -10 -28 0 -7 5 -10 16 -6 27 7 17 8 17
21 -1 7 -10 13 -21 13 -26z m135 32 c3 -5 1 -10 -4 -10 -6 0 -11 5 -11 10 0 6
2 10 4 10 3 0 8 -4 11 -10z m-539 -14 c20 -21 17 -28 -6 -16 -11 6 -20 15 -20
20 0 14 9 12 26 -4z m154 -1 c7 -8 16 -12 21 -9 5 3 9 -4 9 -15 0 -11 -4 -22
-10 -26 -12 -7 -50 30 -50 50 0 19 14 19 30 0z m81 -6 c9 -18 8 -20 -9 -15
-15 5 -20 3 -18 -10 2 -10 11 -18 20 -20 32 -5 30 -14 -2 -14 -31 0 -50 14
-33 24 10 7 9 25 -2 44 -6 8 -2 12 12 12 11 0 25 -9 32 -21z m116 15 c-3 -3
-12 -4 -19 -1 -8 3 -5 6 6 6 11 1 17 -2 13 -5z m813 -14 c0 -11 -4 -20 -9 -20
-5 0 -7 9 -4 20 3 11 7 20 9 20 2 0 4 -9 4 -20z m492 -5 c-2 -14 -11 -25 -18
-25 -12 0 -11 5 2 25 9 14 17 25 19 25 1 0 0 -11 -3 -25z m-298 -12 c-4 -16
-13 -35 -20 -43 -12 -12 -16 -12 -26 -1 -11 11 -10 13 4 8 19 -7 34 8 19 18
-6 3 -3 13 7 25 23 25 23 24 16 -7z m-757 2 c8 -8 19 -13 24 -9 14 8 39 -15
39 -35 -1 -14 -2 -14 -14 2 -16 21 -27 22 -20 2 4 -8 1 -15 -5 -15 -6 0 -11 7
-11 16 0 8 -13 20 -30 25 -16 6 -30 15 -30 20 0 14 30 10 47 -6z m227 -1 c3
-8 2 -12 -4 -9 -6 3 -10 10 -10 16 0 14 7 11 14 -7z m69 -29 c4 -22 4 -34 1
-27 -3 6 -11 9 -16 6 -7 -4 -8 -2 -4 5 4 6 1 14 -8 17 -12 5 -12 8 2 23 9 10
18 17 18 17 1 -1 4 -19 7 -41z m77 14 c0 -6 -4 -7 -10 -4 -5 3 -10 11 -10 16
0 6 5 7 10 4 6 -3 10 -11 10 -16z m310 11 c0 -5 -5 -10 -11 -10 -5 0 -7 5 -4
10 3 6 8 10 11 10 2 0 4 -4 4 -10z m153 -10 c-3 -12 -8 -19 -11 -16 -5 6 5 36
12 36 2 0 2 -9 -1 -20z m-1008 0 c3 -5 1 -10 -4 -10 -6 0 -11 5 -11 10 0 6 2
10 4 10 3 0 8 -4 11 -10z m698 -20 c-7 -27 -13 -25 -11 4 1 14 5 23 9 20 4 -2
5 -13 2 -24z m411 15 c3 -9 0 -15 -9 -15 -8 0 -15 7 -15 15 0 8 4 15 9 15 5 0
11 -7 15 -15z m176 5 c0 -5 -10 -10 -22 -10 -19 0 -20 2 -8 10 19 13 30 13 30
0z m110 0 c13 -9 13 -12 -2 -20 -10 -6 -15 -17 -11 -25 4 -13 0 -12 -26 2 -17
10 -25 20 -18 22 6 2 16 10 20 17 9 17 17 17 37 4z m-1736 -9 c11 -4 15 -10 9
-14 -5 -3 -19 0 -29 8 -20 15 -11 18 20 6z m724 -14 c5 -23 -10 -21 -26 4 -12
18 -11 20 5 17 10 -2 19 -11 21 -21z m802 19 c0 -3 -4 -8 -10 -11 -5 -3 -10
-1 -10 4 0 6 5 11 10 11 6 0 10 -2 10 -4z m-1576 -30 c-4 -10 2 -12 22 -8 19
3 25 1 20 -7 -4 -6 -2 -11 3 -11 6 0 11 5 11 10 0 7 7 7 20 0 11 -6 18 -16 14
-22 -4 -7 -9 -6 -15 3 -8 12 -10 12 -18 1 -4 -8 -10 -13 -12 -12 -2 1 -12 -2
-22 -6 -12 -4 -25 1 -38 15 -18 20 -32 25 -52 22 -5 -1 -6 3 -2 9 3 5 17 7 30
4 12 -3 26 -1 29 5 10 16 16 14 10 -3z m676 -2 c0 -2 -9 -4 -21 -4 -11 0 -18
4 -14 10 5 8 35 3 35 -6z m59 2 c10 -12 8 -13 -8 -9 -12 3 -18 9 -15 14 7 12
10 11 23 -5z m641 -1 c0 -12 -20 -35 -31 -35 -4 0 -6 11 -5 24 1 17 7 24 19
23 9 -1 17 -6 17 -12z m-1016 -25 c-6 -6 -10 -3 -10 10 0 13 4 16 10 10 7 -7
7 -13 0 -20z m1342 -19 c1 -23 -22 -36 -32 -19 -4 7 -2 14 4 16 8 2 6 9 -5 20
-12 12 -18 13 -21 4 -2 -6 -11 -12 -20 -12 -16 1 -16 2 0 14 10 7 15 16 11 20
-4 4 8 0 27 -8 23 -9 35 -21 36 -35z m352 37 c-6 -18 -25 -21 -25 -3 0 8 7 15
15 15 7 0 12 -5 10 -12z m-1735 -8 c8 0 8 -3 0 -11 -13 -13 -43 -5 -43 12 0 6
7 8 16 5 9 -3 21 -6 27 -6z m1181 -17 c-10 -40 -14 -41 -14 -5 0 18 5 32 10
32 6 0 8 -11 4 -27z m336 17 c0 -5 -4 -10 -10 -10 -5 0 -10 5 -10 10 0 6 5 10
10 10 6 0 10 -4 10 -10z m-1965 -10 c-3 -5 -12 -10 -18 -10 -7 0 -6 4 3 10 19
12 23 12 15 0z m734 -4 c7 -8 8 -17 3 -20 -6 -3 -12 3 -15 14 -6 24 -4 25 12
6z m96 -6 c8 -25 26 -27 19 -2 -2 9 1 7 7 -6 16 -29 7 -37 -23 -21 -27 14 -39
30 -32 41 9 14 22 9 29 -12z m350 10 c3 -5 1 -10 -4 -10 -6 0 -11 5 -11 10 0
6 2 10 4 10 3 0 8 -4 11 -10z m480 -23 c-4 -14 -13 -28 -21 -31 -8 -3 -13 -2
-12 2 31 65 45 77 33 29z m-1795 12 c0 -5 5 -7 10 -4 6 4 18 4 27 1 12 -5 13
-9 3 -21 -14 -17 -55 -21 -45 -5 3 6 -1 13 -9 16 -9 3 -13 10 -10 15 7 12 24
11 24 -2z m230 1 c0 -5 -2 -10 -4 -10 -3 0 -8 5 -11 10 -3 6 -1 10 4 10 6 0
11 -4 11 -10z m451 -10 c10 0 19 -4 19 -9 0 -6 -12 -6 -30 0 -18 7 -27 15 -23
22 5 8 8 8 11 -1 2 -7 12 -12 23 -12z m124 10 c-4 -6 -11 -8 -16 -5 -5 4 -9 1
-9 -5 0 -7 8 -9 20 -5 14 4 20 2 20 -8 0 -14 -27 -16 -48 -3 -10 6 -10 11 -1
22 13 16 44 19 34 4z m125 -9 c-1 -34 -40 -36 -40 -1 0 13 5 17 20 13 11 -3
20 -8 20 -12z m225 -31 c7 -22 6 -23 -8 -12 -9 8 -13 20 -10 28 3 8 0 14 -6
14 -6 0 -11 5 -11 12 0 19 27 -13 35 -42z m402 29 c1 -11 -5 -23 -13 -26 -8
-3 -14 -11 -14 -19 0 -8 -5 -14 -11 -14 -6 0 -8 7 -5 16 3 9 6 24 6 34 0 10 8
21 18 23 9 3 17 5 17 6 1 0 1 -8 2 -20z m165 -2 c8 4 9 0 5 -11 -4 -10 -7 -21
-7 -26 0 -4 -12 -15 -26 -25 -25 -16 -26 -16 -19 5 4 11 1 27 -5 35 -14 17 -3
38 16 31 8 -3 15 0 15 7 1 7 3 4 6 -6 2 -9 9 -14 15 -10z m-1533 -1 c10 -11 9
-14 -4 -12 -8 1 -21 8 -27 14 -9 9 -8 12 4 12 8 0 21 -6 27 -14z m857 -13 c-3
-8 -6 -21 -6 -29 0 -8 -4 -14 -10 -14 -5 0 -6 7 -3 17 4 11 3 14 -5 9 -8 -5
-12 1 -12 17 0 20 4 24 21 20 12 -4 18 -11 15 -20z m875 8 c-6 -10 -8 -21 -4
-24 3 -4 -6 -11 -21 -17 -15 -5 -44 -23 -64 -39 -20 -15 -46 -31 -57 -35 -17
-6 -16 -4 5 20 14 16 30 33 35 39 6 7 16 10 24 7 7 -2 16 0 20 5 3 5 15 15 26
21 11 6 14 12 8 12 -7 0 -13 4 -13 10 0 5 6 7 14 4 8 -3 17 -1 21 5 11 19 16
12 6 -8z m-320 -18 c-8 -15 -10 -15 -11 -2 0 17 10 32 18 25 2 -3 -1 -13 -7
-23z m439 23 c0 -3 -4 -8 -10 -11 -5 -3 -10 -1 -10 4 0 6 5 11 10 11 6 0 10
-2 10 -4z m330 -6 c0 -5 -5 -10 -11 -10 -5 0 -7 5 -4 10 3 6 8 10 11 10 2 0 4
-4 4 -10z m-1755 -26 c0 -21 -1 -21 -17 -7 -10 9 -18 20 -18 24 0 4 8 7 18 6
11 0 17 -9 17 -23z m-105 -15 c0 -11 -4 -17 -10 -14 -5 3 -10 15 -10 26 0 11
5 17 10 14 6 -3 10 -15 10 -26z m178 14 c11 -10 29 -23 39 -29 10 -7 14 -16
10 -20 -5 -5 -14 -2 -20 6 -7 9 -28 25 -47 38 -20 12 -28 22 -19 22 9 0 25 -8
37 -17z m292 -8 c0 5 7 -1 16 -13 8 -12 13 -26 10 -31 -11 -18 13 -60 44 -76
18 -9 28 -20 24 -27 -5 -8 -1 -9 10 -5 22 9 44 -41 24 -55 -9 -6 -5 -7 10 -3
23 7 27 -1 14 -23 -6 -9 -13 -8 -28 6 -10 9 -32 25 -47 35 -19 12 -26 24 -23
34 4 11 2 13 -9 9 -8 -3 -14 -2 -14 2 3 21 -2 31 -15 26 -7 -3 -16 1 -19 10
-3 8 1 17 9 20 21 8 17 26 -7 26 -16 0 -20 5 -16 20 3 11 1 20 -4 20 -5 0 -9
-5 -9 -11 0 -5 -4 -7 -10 -4 -14 9 -13 38 2 53 10 10 15 9 25 -5 7 -9 13 -13
13 -8z m1029 -2 l-1 -28 -7 25 c-5 17 -9 21 -15 12 -4 -6 -15 -12 -24 -12 -13
0 -13 2 4 15 29 22 44 18 43 -12z m216 18 c-3 -5 -1 -12 5 -16 6 -4 7 -12 4
-18 -4 -7 6 0 23 16 31 28 43 33 43 17 0 -13 -52 -60 -61 -54 -4 2 -10 0 -14
-6 -4 -6 -11 -8 -16 -4 -5 3 -6 10 -3 16 5 7 1 9 -9 5 -19 -7 -21 1 -7 23 7
11 10 11 10 2 0 -7 4 -11 10 -7 5 3 7 12 3 20 -3 8 0 15 7 15 6 0 9 -4 5 -9z
m-2175 -11 c0 -5 -4 -10 -10 -10 -5 0 -10 5 -10 10 0 6 5 10 10 10 6 0 10 -4
10 -10z m95 0 c-3 -5 -13 -10 -21 -10 -8 0 -14 5 -14 10 0 6 9 10 21 10 11 0
17 -4 14 -10z m945 1 c0 -31 -15 -71 -26 -71 -8 0 -14 -4 -14 -10 0 -5 -4 -10
-9 -10 -12 0 -8 39 7 66 6 12 8 24 5 28 -3 3 3 6 15 6 12 0 22 -4 22 -9z m486
-35 c-4 -18 -13 -39 -20 -45 -8 -7 -17 -27 -20 -46 -7 -35 -22 -53 -34 -40 -3
3 -2 9 4 13 6 4 13 17 16 29 5 20 4 21 -13 12 -11 -5 -17 -13 -15 -17 3 -5 1
-14 -5 -22 -7 -12 -9 -12 -9 4 0 30 39 86 56 79 7 -3 14 0 14 6 0 6 -6 11 -12
11 -9 0 -10 3 -2 8 6 4 17 18 23 30 17 32 25 21 17 -22z m79 -12 c-3 -48 -8
-61 -31 -81 -15 -12 -30 -21 -33 -17 -3 3 5 14 19 24 14 11 21 20 15 20 -5 0
-16 4 -24 9 -12 7 -12 13 0 40 8 17 20 31 26 31 7 0 12 3 12 8 -2 14 1 22 10
22 5 0 7 -25 6 -56z m510 30 c1 -10 4 -25 8 -31 6 -9 3 -11 -8 -6 -11 4 -15
14 -12 29 2 13 0 25 -5 28 -5 2 -3 3 4 2 7 -2 13 -11 13 -22z m95 22 c0 -3 -4
-8 -10 -11 -5 -3 -10 -1 -10 4 0 6 5 11 10 11 6 0 10 -2 10 -4z m-2250 -16 c0
-5 -4 -10 -10 -10 -5 0 -10 5 -10 10 0 6 5 10 10 10 6 0 10 -4 10 -10z m480
-33 c0 -8 -3 -8 -9 1 -4 8 -11 13 -15 13 -18 -3 -24 0 -29 13 -5 11 -1 11 24
-1 16 -8 29 -20 29 -26z m84 -6 c-6 -6 -24 19 -24 34 1 6 7 1 15 -9 8 -11 12
-22 9 -25z m1199 15 c-10 -13 -19 -23 -21 -21 -7 6 19 45 29 45 5 0 2 -11 -8
-24z m-1625 2 c-3 -7 -11 -13 -18 -13 -7 0 -15 6 -17 13 -3 7 4 12 17 12 13 0
20 -5 18 -12z m744 -12 c9 -13 1 -26 -16 -26 -8 0 -16 11 -18 24 -4 19 -1 23
11 18 9 -3 19 -10 23 -16z m1085 18 c-3 -3 -12 -4 -19 -1 -8 3 -5 6 6 6 11 1
17 -2 13 -5z m-1652 -14 c11 -5 14 -9 7 -9 -7 -1 -11 -5 -8 -9 2 -4 -4 -8 -14
-9 -11 -1 -22 2 -25 8 -3 5 1 6 9 3 9 -3 16 -2 16 4 0 6 -6 13 -12 15 -7 3 -8
5 -3 6 6 0 19 -4 30 -9z m805 -9 c0 -5 -6 -12 -12 -14 -8 -3 -6 -6 5 -6 20 -1
22 -14 4 -30 -10 -8 -14 -7 -15 2 0 6 -4 22 -7 35 -6 16 -3 22 9 22 9 0 16 -4
16 -9z m790 -1 c0 -6 -11 -15 -24 -21 -23 -11 -56 -83 -43 -96 10 -9 -45 -53
-67 -53 -16 0 -17 -2 -5 -17 10 -12 10 -14 1 -9 -7 4 -15 1 -18 -8 -3 -9 -12
-16 -19 -16 -16 0 -27 -27 -15 -35 6 -4 10 0 10 8 0 10 7 13 18 10 38 -10 12
-64 -39 -82 -39 -14 -37 1 3 18 18 8 27 16 19 19 -7 2 -18 -1 -24 -7 -19 -19
-27 -12 -16 16 6 15 9 43 7 62 -2 29 1 35 20 38 14 2 21 -1 17 -7 -3 -5 -1
-10 4 -10 6 0 11 2 11 4 0 2 2 11 5 18 4 9 -2 14 -15 15 -11 1 -20 -3 -20 -8
0 -6 -4 -7 -10 -4 -5 3 -10 10 -10 14 0 13 41 52 50 46 4 -3 11 7 14 21 8 31
54 73 81 74 11 0 27 5 35 10 19 13 30 13 30 0z m50 -12 c0 -6 -3 -8 -7 -5 -3
4 -12 -1 -19 -11 -7 -9 -16 -13 -21 -9 -4 5 1 15 11 23 24 17 36 18 36 2z
m-1770 -9 c0 -8 4 -8 15 1 12 10 21 8 50 -10 38 -24 44 -32 18 -24 -10 2 -7
-1 7 -8 47 -24 54 -54 13 -52 -16 0 -35 2 -43 3 -8 1 -40 24 -70 51 l-55 50
33 0 c17 0 32 -5 32 -11z m723 -9 c3 -11 1 -18 -4 -14 -5 3 -9 12 -9 20 0 20
7 17 13 -6z m800 -10 c-3 -11 -9 -20 -14 -20 -5 0 -6 -7 -3 -15 4 -8 1 -15 -4
-15 -21 0 -21 18 -1 44 25 31 29 32 22 6z m-1123 -5 c0 -8 -6 -15 -14 -15 -20
0 -29 17 -14 23 22 9 28 7 28 -8z m477 8 c-4 -3 -2 -12 4 -20 9 -10 8 -13 -3
-13 -22 0 -29 12 -17 27 6 7 14 13 17 13 3 0 2 -3 -1 -7z m968 -3 c-3 -5 -12
-10 -18 -10 -7 0 -6 4 3 10 19 12 23 12 15 0z m-1310 -10 c13 -6 15 -9 5 -9
-8 0 -22 4 -30 9 -18 12 -2 12 25 0z m1425 2 c0 -4 -14 -9 -31 -10 -19 -2 -28
2 -24 8 7 12 55 14 55 2z m-603 -24 c-3 -8 -6 -5 -6 6 -1 11 2 17 5 13 3 -3 4
-12 1 -19z m686 12 c8 0 8 -3 1 -10 -12 -12 -44 -3 -44 12 0 6 7 7 16 4 9 -3
21 -6 27 -6z m-1878 -14 c17 -9 22 -16 13 -19 -9 -3 -8 -6 5 -11 52 -18 53
-19 28 -24 -27 -4 -74 26 -79 52 -4 20 -2 20 33 2z m364 -6 c12 0 21 -4 21
-10 0 -12 -50 -10 -67 3 -20 15 -15 29 6 17 11 -5 29 -10 40 -10z m166 2 c-3
-3 -11 0 -18 7 -9 10 -8 11 6 5 10 -3 15 -9 12 -12z m-441 -8 c9 -23 7 -34 -4
-34 -5 0 -7 7 -4 15 4 8 1 15 -5 15 -6 0 -11 5 -11 10 0 16 17 12 24 -6z
m1646 -16 c0 -5 -4 -8 -10 -8 -5 0 -10 10 -10 23 0 18 2 19 10 7 5 -8 10 -18
10 -22z m56 25 c-10 -11 -36 -12 -36 -2 0 5 10 9 22 9 12 0 18 -3 14 -7z
m-1556 -43 c0 -23 -9 -25 -35 -6 -11 8 -16 19 -12 30 9 23 47 3 47 -24z m210
30 c0 -5 -4 -10 -10 -10 -5 0 -10 5 -10 10 0 6 5 10 10 10 6 0 10 -4 10 -10z
m504 -5 c-4 -8 -8 -15 -10 -15 -2 0 -4 7 -4 15 0 8 4 15 10 15 5 0 7 -7 4 -15z
m646 -10 c-7 -9 -15 -13 -18 -10 -3 2 1 11 8 20 7 9 15 13 18 10 3 -2 -1 -11
-8 -20z m74 7 c9 -15 -60 -82 -83 -82 -19 0 -20 3 -11 20 9 18 21 24 41 22 3
-1 12 10 19 23 14 26 25 31 34 17z m-1354 -6 c0 -11 -19 -15 -25 -6 -3 5 1 10
9 10 9 0 16 -2 16 -4z m294 -5 c4 -1 6 -7 3 -15 -3 -8 1 -20 9 -26 8 -7 14
-19 14 -27 0 -8 5 -11 10 -8 6 3 10 -1 10 -10 0 -14 -2 -14 -22 1 -13 9 -35
34 -49 54 -25 35 -26 36 -5 34 11 -1 25 -3 30 -3z m246 -16 c0 -7 6 -15 13
-18 6 -2 9 -7 6 -11 -13 -14 -39 7 -39 31 0 13 4 21 10 18 6 -3 10 -12 10 -20z
m920 21 c0 -2 -7 -7 -16 -10 -8 -3 -12 -2 -9 4 6 10 25 14 25 6z m-1415 -16
c3 -5 1 -10 -4 -10 -6 0 -11 5 -11 10 0 6 2 10 4 10 3 0 8 -4 11 -10z m968
-12 c-10 -42 -73 -92 -73 -58 0 6 5 10 10 10 6 0 10 7 10 15 0 9 10 20 23 25
12 5 18 9 14 9 -11 1 2 21 13 21 4 0 6 -10 3 -22z m-1328 -3 c11 -3 29 -11 40
-16 18 -8 18 -9 -2 -3 -14 3 -23 1 -23 -6 0 -8 12 -11 33 -8 29 3 33 1 29 -17
-2 -15 4 -24 25 -33 l28 -12 -30 6 c-16 3 -34 12 -38 20 -4 8 -20 14 -36 14
-15 0 -36 7 -47 15 -18 14 -18 14 5 15 46 0 9 14 -52 19 -5 1 -6 5 -2 10 6 10
37 8 70 -4z m140 5 c3 -6 -1 -7 -9 -4 -18 7 -21 14 -7 14 6 0 13 -4 16 -10z
m294 -6 c3 -2 -4 -11 -15 -18 -17 -13 -20 -12 -26 2 -11 29 -9 34 15 26 12 -3
24 -8 26 -10z m51 6 c0 -5 -2 -10 -4 -10 -3 0 -8 5 -11 10 -3 6 -1 10 4 10 6
0 11 -4 11 -10z m770 0 c0 8 3 10 7 7 7 -8 -25 -47 -39 -47 -5 0 -4 8 1 19 6
10 7 22 3 27 -4 5 1 2 11 -5 14 -11 17 -11 17 -1z m480 1 c0 -11 -29 -35 -35
-29 -10 9 7 38 21 38 8 0 14 -4 14 -9z m-1624 -28 c-6 -6 -36 9 -36 18 0 5 9
4 20 -3 10 -7 18 -14 16 -15z m359 7 c10 -11 13 -20 7 -20 -6 0 -16 9 -22 20
-6 11 -9 20 -7 20 2 0 12 -9 22 -20z m490 10 c3 -5 2 -10 -4 -10 -5 0 -13 5
-16 10 -3 6 -2 10 4 10 5 0 13 -4 16 -10z m193 -2 c-2 -6 -10 -14 -16 -16 -7
-2 -10 2 -6 12 7 18 28 22 22 4z m522 2 c0 -5 -5 -10 -11 -10 -5 0 -7 5 -4 10
3 6 8 10 11 10 2 0 4 -4 4 -10z m-1307 -18 c16 -18 15 -18 -16 -15 -47 6 -59
12 -52 23 10 16 51 11 68 -8z m1413 6 c5 -7 3 -8 -5 -4 -8 5 -11 2 -9 -9 2
-10 -3 -20 -9 -22 -8 -3 -13 4 -13 15 0 11 6 23 13 25 6 3 13 6 14 6 1 1 5 -4
9 -11z m-1330 -23 c4 -8 17 -15 30 -15 13 0 24 -4 24 -10 0 -5 -10 -10 -23
-10 -25 0 -67 26 -67 41 0 15 30 10 36 -6z m-288 -5 c-1 -21 17 -50 33 -50 12
0 19 -7 19 -20 0 -11 -4 -20 -9 -20 -25 0 -41 14 -41 36 0 13 -5 24 -11 24 -5
0 -7 -5 -3 -12 4 -7 3 -8 -5 -4 -6 4 -9 11 -6 16 3 5 -4 11 -15 15 -30 10 -24
26 9 23 16 -1 29 -5 29 -8z m567 -24 c17 -11 32 -23 35 -26 3 -4 19 -13 37
-20 22 -10 33 -22 35 -42 5 -33 2 -33 -52 -12 -34 14 -40 21 -40 45 0 16 -3
29 -7 29 -5 0 -24 14 -43 30 -39 33 -15 31 35 -4z m-435 0 c0 -7 3 -7 8 2 7 9
13 8 27 -8 10 -11 15 -23 12 -27 -4 -3 3 -14 15 -24 l21 -19 -21 0 c-22 0 -64
36 -82 70 -14 25 -13 30 5 24 8 -4 15 -11 15 -18z m91 4 c21 -12 25 -35 9 -45
-15 -9 -40 14 -40 36 0 22 4 23 31 9z m-136 -10 c3 -5 1 -10 -4 -10 -6 0 -11
5 -11 10 0 6 2 10 4 10 3 0 8 -4 11 -10z m455 -12 c22 -21 22 -22 4 -29 -10
-4 -13 -8 -6 -8 6 -1 12 -6 12 -12 0 -8 -4 -8 -15 1 -8 6 -14 15 -13 18 1 4
-3 17 -10 30 -16 28 -3 28 28 0z m118 4 c5 -17 -13 -15 -27 2 -10 12 -9 14 5
12 10 -2 20 -8 22 -14z m492 -1 c0 -11 -9 -23 -20 -26 -11 -4 -18 -11 -14 -16
9 -14 -25 -49 -48 -49 -11 0 -16 5 -13 10 3 6 -1 10 -9 10 -21 0 -31 21 -15
30 7 5 17 6 21 4 4 -3 8 0 8 6 0 7 7 10 15 6 9 -3 15 0 15 8 0 12 19 23 58 35
1 1 2 -8 2 -18z m-749 -49 c9 -11 7 -13 -12 -10 -13 2 -23 9 -22 16 2 6 -8 14
-22 18 -29 7 -33 21 -7 27 9 2 25 -5 34 -17 10 -12 23 -27 29 -34z m333 38
c12 -12 -2 -30 -23 -30 -12 0 -20 9 -23 25 -5 22 -3 25 16 19 11 -3 25 -10 30
-14z m-624 -32 c0 -6 -7 -5 -15 2 -8 7 -15 17 -15 22 0 6 7 5 15 -2 8 -7 15
-17 15 -22z m229 -4 c23 -24 23 -24 2 -24 -11 0 -21 6 -21 14 0 13 -27 31 -42
28 -5 -1 -8 3 -8 9 0 16 42 0 69 -27z m1031 22 c0 -2 -7 -7 -16 -10 -8 -3 -12
-2 -9 4 6 10 25 14 25 6z m-409 -39 c-16 -16 -26 0 -10 19 9 11 15 12 17 4 2
-6 -1 -17 -7 -23z m439 17 c0 -8 -5 -12 -10 -9 -6 4 -8 11 -5 16 9 14 15 11
15 -7z m-1311 -30 c3 -16 1 -17 -13 -5 -19 16 -21 34 -3 29 6 -3 14 -13 16
-24z m645 0 c17 -17 22 -54 7 -54 -9 0 -51 52 -51 64 0 12 29 6 44 -10z m396
-13 c-6 -12 -15 -19 -21 -16 -5 4 -9 2 -9 -4 0 -5 6 -11 13 -14 6 -3 -10 -4
-36 -2 -26 2 -51 6 -54 9 -4 3 -1 6 6 6 7 0 9 5 5 11 -5 8 -2 9 12 1 12 -7 25
-7 36 -1 10 6 22 8 27 5 5 -3 11 4 14 16 4 12 9 19 12 16 4 -3 2 -16 -5 -27z
m-910 4 c0 -2 -6 -5 -13 -8 -8 -3 -14 1 -14 8 0 7 6 11 14 8 7 -3 13 -6 13 -8z
m358 -3 c3 -9 -2 -13 -14 -10 -9 1 -19 9 -22 16 -3 9 2 13 14 10 9 -1 19 -9
22 -16z m442 3 c0 -8 -4 -15 -10 -15 -5 0 -10 7 -10 15 0 8 5 15 10 15 6 0 10
-7 10 -15z m-763 -10 c0 -8 -4 -12 -9 -9 -5 3 -6 10 -3 15 9 13 12 11 12 -6z
m37 -17 c4 -21 9 -28 14 -21 10 16 84 -2 132 -32 56 -36 103 -83 96 -100 -3
-8 0 -14 7 -12 7 1 11 -6 11 -15 -1 -10 2 -18 7 -18 5 0 15 -13 24 -30 15 -29
15 -30 -9 -36 -43 -10 -61 -1 -59 31 1 15 8 32 15 37 11 6 11 8 0 8 -7 0 -18
-13 -23 -30 -6 -16 -13 -30 -15 -30 -13 0 -104 64 -104 73 0 15 -93 112 -115
120 -17 7 -21 47 -4 47 6 0 8 9 4 20 -3 11 -2 20 3 20 5 0 12 -15 16 -32z
m101 22 c-27 -12 -35 -12 -35 0 0 6 12 10 28 9 24 0 25 -1 7 -9z m248 -16 c4
-1 11 -2 17 -3 5 0 17 -13 27 -27 17 -26 16 -27 -11 -50 -30 -27 -23 -32 12
-8 20 14 24 13 47 -10 33 -33 32 -52 -6 -111 -34 -53 -32 -54 -74 26 l-24 47
22 -5 c19 -3 18 -2 -5 12 -36 20 -66 83 -60 123 4 29 6 31 26 20 11 -7 24 -13
29 -14z m-498 -10 l16 -25 -25 16 c-14 10 -23 21 -20 26 8 13 10 12 29 -17z
m303 -6 c4 -23 -7 -22 -38 3 l-25 20 30 -3 c19 -2 31 -9 33 -20z m772 13 c0
-5 -7 -12 -16 -15 -9 -4 -14 -9 -11 -12 3 -3 -4 -17 -16 -30 -22 -25 -39 -25
-17 1 10 12 10 15 -3 15 -24 0 -10 25 21 37 35 14 42 15 42 4z m61 -14 c-10
-9 -11 -8 -5 6 3 10 9 15 12 12 3 -3 0 -11 -7 -18z m-801 -7 c0 -11 -2 -20 -4
-20 -2 0 -6 9 -9 20 -3 11 -1 20 4 20 5 0 9 -9 9 -20z m100 10 c0 -5 -2 -10
-4 -10 -3 0 -8 5 -11 10 -3 6 -1 10 4 10 6 0 11 -4 11 -10z m798 -3 c-22 -22
-84 -67 -92 -67 -20 0 33 62 59 69 43 13 48 13 33 -2z m-388 -6 c0 -5 10 -7
23 -3 20 5 21 4 7 -13 -14 -17 -13 -18 10 -11 52 15 61 15 57 3 -2 -7 -13 -11
-23 -10 -12 2 -14 0 -5 -4 11 -4 8 -10 -10 -25 l-24 -19 25 7 c14 4 27 11 28
15 2 5 8 7 13 3 11 -6 12 -48 2 -58 -5 -4 -8 -13 -8 -19 0 -7 -6 -12 -12 -11
-7 1 -22 2 -33 3 -12 0 -20 8 -21 19 0 13 -2 12 -9 -5 -5 -13 -14 -23 -19 -23
-5 0 -16 -3 -24 -6 -11 -4 -14 2 -11 21 3 31 1 29 39 43 19 8 23 11 10 11 -38
-2 -45 1 -45 21 0 13 7 20 20 20 11 0 20 4 20 9 0 5 -9 7 -20 4 -22 -6 -23 -3
-14 21 7 17 24 22 24 7z m-760 -32 c0 -5 7 -9 15 -9 8 0 15 -2 15 -4 0 -2 3
-11 6 -20 10 -25 -13 -19 -41 11 -28 31 -32 45 -10 37 8 -4 15 -10 15 -15z
m882 -1 c-7 -7 -12 -8 -12 -2 0 14 12 26 19 19 2 -3 -1 -11 -7 -17z m158 12
c0 -11 -48 -60 -59 -60 -21 0 -19 16 6 42 26 28 53 37 53 18z m-495 -40 c3 -5
2 -10 -4 -10 -5 0 -13 5 -16 10 -3 6 -2 10 4 10 5 0 13 -4 16 -10z m-419 -71
c3 -6 4 -12 1 -15 -6 -7 -67 45 -67 58 0 10 55 -26 66 -43z m844 33 c0 -12
-23 -32 -37 -32 -11 0 -11 4 -1 20 13 20 38 28 38 12z m-323 -24 c-3 -8 -6 -5
-6 6 -1 11 2 17 5 13 3 -3 4 -12 1 -19z m-581 -33 c4 -8 11 -15 18 -15 6 -1
27 -14 46 -30 19 -17 40 -30 47 -30 7 0 13 -5 13 -10 0 -25 -149 68 -150 93 0
13 21 7 26 -8z m759 -4 c3 -5 -4 -13 -16 -16 -23 -8 -34 -1 -24 14 8 13 32 14
40 2z m-789 -16 c4 -8 10 -13 14 -10 5 3 11 1 15 -5 3 -5 -1 -10 -9 -10 -8 0
-18 5 -21 10 -4 6 -11 8 -16 5 -5 -4 -9 1 -9 9 0 20 19 21 26 1z m732 8 c-2
-5 -14 -26 -28 -48 l-25 -40 -3 29 c-3 22 3 34 20 48 24 18 42 24 36 11z
m-202 -75 c-5 -28 0 -78 15 -150 20 -101 20 -153 -1 -132 -5 5 -22 47 -39 94
-16 47 -35 99 -42 115 -11 28 -9 35 17 73 39 56 59 56 50 0z m264 37 c0 -3
-16 -31 -35 -61 -33 -52 -55 -63 -55 -27 0 26 31 82 48 86 26 7 42 8 42 2z
m-442 -81 c-4 -3 -17 -2 -30 2 -22 7 -22 7 -3 14 20 8 44 -4 33 -16z m397
-233 c-3 -12 -11 -19 -16 -16 -5 4 -5 14 2 26 13 26 23 18 14 -10z m781 -28
c-10 -10 -19 5 -10 18 6 11 8 11 12 0 2 -7 1 -15 -2 -18z m-71 -18 c0 -10 8
-19 19 -21 14 -2 16 0 7 9 -15 15 -14 27 3 27 11 0 14 -17 7 -52 -2 -12 -34
-2 -46 15 -7 9 -18 17 -25 17 -10 0 -10 3 0 15 16 20 35 14 35 -10z m155 10
c0 -8 -2 -15 -4 -15 -2 0 -6 7 -10 15 -3 8 -1 15 4 15 6 0 10 -7 10 -15z
m-860 -9 c0 -3 -4 -8 -10 -11 -5 -3 -10 -1 -10 4 0 6 5 11 10 11 6 0 10 -2 10
-4z m656 -20 c3 -8 18 -19 34 -24 23 -9 28 -15 27 -44 -1 -28 -27 -77 -27 -51
0 5 5 14 12 21 9 9 3 12 -27 13 -76 2 -88 4 -93 17 -2 7 5 16 17 19 19 5 25
15 22 36 0 4 7 7 17 7 14 0 15 2 2 10 -10 7 -11 10 -2 10 7 0 15 -6 18 -14z
m164 4 c0 -5 -4 -10 -9 -10 -6 0 -13 5 -16 10 -3 6 1 10 9 10 9 0 16 -4 16
-10z m-790 -30 c0 -5 -7 -7 -15 -4 -8 4 -12 10 -9 15 6 11 24 2 24 -11z m1015
10 c3 -5 1 -10 -4 -10 -6 0 -11 5 -11 10 0 6 2 10 4 10 3 0 8 -4 11 -10z
m-767 -25 c-3 -3 -9 2 -12 12 -6 14 -5 15 5 6 7 -7 10 -15 7 -18z m282 10 c0
-8 -4 -15 -10 -15 -5 0 -10 7 -10 15 0 8 5 15 10 15 6 0 10 -7 10 -15z m-2225
-5 c3 -5 1 -10 -4 -10 -6 0 -11 5 -11 10 0 6 2 10 4 10 3 0 8 -4 11 -10z
m2450 0 c3 -5 1 -10 -4 -10 -6 0 -11 5 -11 10 0 6 2 10 4 10 3 0 8 -4 11 -10z
m124 1 c23 7 44 9 47 6 10 -10 -17 -39 -31 -33 -7 2 -18 0 -26 -5 -10 -6 -10
-9 -1 -9 24 0 12 -29 -15 -34 -39 -8 -93 -5 -93 6 0 4 5 8 10 8 6 0 18 16 27
35 12 26 20 32 29 24 9 -7 25 -7 53 2z m140 -20 c18 -18 18 -31 -1 -31 -5 0
-6 5 -2 12 5 7 2 9 -8 5 -11 -4 -18 1 -21 14 -7 24 8 24 32 0z m-1029 -5 c0
-3 -4 -8 -10 -11 -5 -3 -10 -1 -10 4 0 6 5 11 10 11 6 0 10 -2 10 -4z m740
-38 c0 -4 -4 -8 -10 -8 -5 0 -10 4 -10 9 0 5 -3 18 -6 28 -5 16 -4 16 10 -1 9
-11 16 -23 16 -28z m60 38 c0 -2 -7 -9 -15 -16 -13 -11 -14 -10 -9 4 5 14 24
23 24 12z m180 -28 c0 -13 -43 -6 -47 8 -2 7 6 10 22 7 14 -3 25 -10 25 -15z
m-420 -28 c0 -5 -2 -10 -4 -10 -3 0 -8 5 -11 10 -3 6 -1 10 4 10 6 0 11 -4 11
-10z m-2120 -20 c0 -5 -2 -10 -4 -10 -3 0 -8 5 -11 10 -3 6 -1 10 4 10 6 0 11
-4 11 -10z m1730 -20 c8 -5 11 -10 5 -10 -5 0 -17 5 -25 10 -8 5 -10 10 -5 10
6 0 17 -5 25 -10z m-403 -36 c-3 -3 -12 -4 -19 -1 -8 3 -5 6 6 6 11 1 17 -2
13 -5z m-1132 -14 c-3 -5 -10 -10 -16 -10 -5 0 -9 5 -9 10 0 6 7 10 16 10 8 0
12 -4 9 -10z m135 -10 c0 -5 -4 -10 -10 -10 -5 0 -10 5 -10 10 0 6 5 10 10 10
6 0 10 -4 10 -10z m275 -10 c19 -8 19 -9 -2 -9 -12 -1 -25 4 -28 9 -7 12 2 12
30 0z"/>
<path d="M600 2010 c0 -5 5 -10 10 -10 6 0 10 5 10 10 0 6 -4 10 -10 10 -5 0
-10 -4 -10 -10z"/>
<path d="M435 1830 c-3 -5 -1 -10 4 -10 6 0 11 5 11 10 0 6 -2 10 -4 10 -3 0
-8 -4 -11 -10z"/>
<path d="M462 1794 c10 -10 20 -15 24 -12 3 4 -5 12 -18 18 -22 12 -22 12 -6
-6z"/>
<path d="M1636 1732 c-3 -6 -1 -14 5 -17 14 -9 20 -2 10 14 -6 8 -11 9 -15 3z"/>
<path d="M712 1614 c-10 -12 -10 -14 2 -14 17 0 30 16 19 23 -5 3 -14 -1 -21
-9z"/>
<path d="M1130 1499 c0 -5 5 -7 10 -4 6 3 10 8 10 11 0 2 -4 4 -10 4 -5 0 -10
-5 -10 -11z"/>
<path d="M1225 1499 c-4 -6 -5 -12 -2 -15 2 -3 7 2 10 11 7 17 1 20 -8 4z"/>
<path d="M1254 1459 c-3 -6 -3 -13 0 -16 3 -4 6 -1 6 7 0 10 3 10 15 0 9 -7
15 -8 15 -2 0 14 -28 23 -36 11z"/>
<path d="M2151 1209 c-17 -17 -31 -36 -31 -42 1 -12 30 21 30 33 0 3 12 11 28
16 17 6 23 12 15 17 -6 4 -24 -6 -42 -24z"/>
<path d="M2140 1140 c0 -9 -5 -21 -12 -28 -7 -7 -9 -12 -5 -12 10 0 47 38 47
48 0 5 -7 9 -15 9 -8 0 -15 -8 -15 -17z"/>
<path d="M2105 1130 c3 -5 8 -10 11 -10 2 0 4 5 4 10 0 6 -5 10 -11 10 -5 0
-7 -4 -4 -10z"/>
<path d="M580 1175 c0 -8 7 -15 16 -15 14 0 14 3 4 15 -7 8 -14 15 -16 15 -2
0 -4 -7 -4 -15z"/>
<path d="M1290 1140 c0 -5 5 -10 11 -10 5 0 7 5 4 10 -3 6 -8 10 -11 10 -2 0
-4 -4 -4 -10z"/>
<path d="M1288 2796 c-10 -7 -18 -24 -17 -37 0 -16 3 -19 6 -9 4 8 13 20 21
26 8 6 13 16 11 22 -3 7 -9 7 -21 -2z"/>
<path d="M1647 2789 c4 -13 8 -18 11 -10 2 7 -1 18 -6 23 -8 8 -9 4 -5 -13z"/>
<path d="M710 2760 c-8 -5 -12 -12 -9 -15 4 -3 12 1 19 10 14 17 11 19 -10 5z"/>
<path d="M687 2729 c7 -7 15 -10 18 -7 3 3 -2 9 -12 12 -14 6 -15 5 -6 -5z"/>
<path d="M1358 2734 c-4 -5 0 -20 8 -34 7 -14 13 -18 13 -10 -1 24 -15 54 -21
44z"/>
<path d="M795 2700 c-3 -5 -1 -10 4 -10 6 0 11 5 11 10 0 6 -2 10 -4 10 -3 0
-8 -4 -11 -10z"/>
<path d="M381 2696 c2 -2 15 -9 29 -15 24 -11 24 -11 6 3 -16 13 -49 24 -35
12z"/>
<path d="M460 2656 c0 -3 9 -10 20 -16 11 -6 20 -8 20 -6 0 3 -9 10 -20 16
-11 6 -20 8 -20 6z"/>
<path d="M2025 2650 c3 -5 8 -10 11 -10 2 0 4 5 4 10 0 6 -5 10 -11 10 -5 0
-7 -4 -4 -10z"/>
<path d="M910 2588 c0 -22 14 -36 44 -48 25 -9 27 -9 16 5 -7 8 -16 12 -21 9
-5 -2 -11 7 -15 21 -6 26 -24 35 -24 13z"/>
<path d="M2215 2510 c0 -31 10 -31 18 -1 2 11 0 22 -7 24 -6 3 -11 -7 -11 -23z"/>
<path d="M381 2468 c-1 -16 4 -28 9 -28 12 0 12 8 0 35 -8 18 -9 17 -9 -7z"/>
<path d="M250 2436 c0 -2 7 -9 15 -16 13 -11 14 -10 9 4 -5 14 -24 23 -24 12z"/>
<path d="M310 2410 c0 -5 -5 -10 -10 -10 -6 0 -23 -14 -38 -31 l-28 -31 -45
21 c-28 14 -37 16 -24 6 11 -9 19 -21 17 -26 -1 -5 4 -9 10 -9 7 0 24 -3 38
-7 14 -3 22 -2 17 2 -11 13 34 57 48 45 7 -6 14 0 22 20 6 17 7 30 2 30 -5 0
-9 -4 -9 -10z"/>
<path d="M84 2365 c15 -8 36 -15 45 -15 9 1 1 7 -18 15 -44 19 -64 19 -27 0z"/>
<path d="M370 2369 c0 -5 5 -7 10 -4 6 3 10 8 10 11 0 2 -4 4 -10 4 -5 0 -10
-5 -10 -11z"/>
<path d="M2235 2359 c-11 -4 -15 -8 -8 -8 7 -1 19 -13 27 -28 10 -19 15 -22
16 -11 0 9 3 23 6 31 7 18 -15 27 -41 16z"/>
<path d="M2191 2317 c-13 -21 -12 -21 5 -5 10 10 16 20 13 22 -3 3 -11 -5 -18
-17z"/>
<path d="M2186 2277 c3 -10 9 -15 12 -12 3 3 0 11 -7 18 -10 9 -11 8 -5 -6z"/>
<path d="M306 2265 c-3 -8 -1 -15 4 -15 6 0 10 7 10 15 0 8 -2 15 -4 15 -2 0
-6 -7 -10 -15z"/>
<path d="M310 2233 c1 -20 28 -55 34 -45 4 6 -2 20 -14 32 -11 11 -20 17 -20
13z"/>
<path d="M140 2103 c0 -6 8 -17 18 -24 16 -13 16 -13 2 6 -8 11 -16 22 -17 24
-2 2 -3 0 -3 -6z"/>
<path d="M2530 2100 c0 -5 5 -10 10 -10 6 0 10 5 10 10 0 6 -4 10 -10 10 -5 0
-10 -4 -10 -10z"/>
<path d="M2546 2054 c-4 -14 -5 -28 -3 -31 3 -2 8 8 11 23 4 14 5 28 3 31 -3
2 -8 -8 -11 -23z"/>
<path d="M2650 2071 c0 -6 4 -13 10 -16 6 -3 7 1 4 9 -7 18 -14 21 -14 7z"/>
<path d="M2610 2040 c0 -15 21 -23 32 -12 6 6 2 11 -11 15 -12 3 -21 1 -21 -3z"/>
<path d="M257 2009 c7 -7 15 -10 18 -7 3 3 -2 9 -12 12 -14 6 -15 5 -6 -5z"/>
<path d="M2601 2008 c1 -7 -3 -26 -10 -42 -6 -16 -10 -31 -7 -33 2 -3 7 5 11
16 3 12 15 21 26 21 11 0 19 7 19 16 0 8 -4 12 -10 9 -5 -3 -10 1 -10 9 0 9
-5 16 -10 16 -6 0 -10 -6 -9 -12z"/>
<path d="M2670 1989 c0 -11 5 -17 10 -14 6 3 10 13 10 21 0 8 -4 14 -10 14 -5
0 -10 -9 -10 -21z"/>
<path d="M2560 1981 c0 -5 5 -13 10 -16 6 -3 10 -2 10 4 0 5 -4 13 -10 16 -5
3 -10 2 -10 -4z"/>
<path d="M2734 1977 c-13 -16 -7 -37 12 -37 8 0 14 10 14 25 0 27 -9 31 -26
12z"/>
<path d="M2756 1913 c-6 -14 -5 -15 5 -6 7 7 10 15 7 18 -3 3 -9 -2 -12 -12z"/>
<path d="M2597 1884 c-4 -4 -7 -14 -7 -23 0 -11 3 -12 11 -4 6 6 10 16 7 23
-2 6 -7 8 -11 4z"/>
<path d="M2956 1748 c3 -4 15 -8 26 -8 12 0 18 3 14 7 -10 10 -46 11 -40 1z"/>
<path d="M2931 1687 c-13 -21 -12 -21 5 -5 10 10 16 20 13 22 -3 3 -11 -5 -18
-17z"/>
<path d="M2645 1690 c-3 -5 -1 -10 4 -10 6 0 11 5 11 10 0 6 -2 10 -4 10 -3 0
-8 -4 -11 -10z"/>
<path d="M2682 1672 c-22 -20 -28 -32 -22 -42 8 -13 10 -12 10 2 0 9 12 26 27
37 14 12 24 23 21 26 -2 3 -19 -8 -36 -23z"/>
<path d="M140 1680 c0 -5 5 -10 10 -10 6 0 10 5 10 10 0 6 -4 10 -10 10 -5 0
-10 -4 -10 -10z"/>
<path d="M2752 1668 c-7 -7 -12 -16 -12 -22 0 -5 -10 -20 -21 -32 -21 -22 -21
-23 -1 -17 11 2 23 12 26 21 3 10 10 27 16 40 11 25 9 27 -8 10z"/>
<path d="M2880 1625 c-13 -14 -22 -27 -19 -29 2 -2 14 10 27 25 29 36 24 38
-8 4z"/>
<path d="M2912 1610 c0 -14 2 -19 5 -12 2 6 2 18 0 25 -3 6 -5 1 -5 -13z"/>
<path d="M100 1560 c0 -5 5 -10 11 -10 5 0 7 5 4 10 -3 6 -8 10 -11 10 -2 0
-4 -4 -4 -10z"/>
<path d="M0 1533 c0 -4 5 -15 10 -23 8 -13 10 -13 10 2 0 9 -4 20 -10 23 -5 3
-10 3 -10 -2z"/>
<path d="M2743 1530 c-14 -6 -23 -18 -23 -30 0 -12 -4 -18 -10 -15 -5 3 -18 1
-27 -4 -10 -6 -13 -11 -6 -11 6 0 18 -3 26 -6 10 -3 18 3 22 18 4 13 17 31 29
40 23 20 21 21 -11 8z"/>
<path d="M90 1506 c0 -2 9 -6 20 -9 11 -3 20 -1 20 4 0 5 -9 9 -20 9 -11 0
-20 -2 -20 -4z"/>
<path d="M2745 1501 c-10 -17 12 -21 25 -6 10 12 10 15 -3 15 -9 0 -18 -4 -22
-9z"/>
<path d="M2855 1500 c-3 -6 1 -7 9 -4 18 7 21 14 7 14 -6 0 -13 -4 -16 -10z"/>
<path d="M95 1480 c-3 -6 2 -13 12 -17 10 -3 33 -12 52 -19 40 -17 44 -17 36
-4 -3 6 -1 10 4 10 6 0 11 -5 11 -12 0 -18 13 0 17 22 3 23 -22 27 -31 5 -8
-22 -29 -18 -45 6 -10 18 -15 19 -22 8 -6 -10 -9 -10 -9 -1 0 14 -16 16 -25 2z"/>
<path d="M0 1450 c0 -5 5 -10 11 -10 5 0 7 5 4 10 -3 6 -8 10 -11 10 -2 0 -4
-4 -4 -10z"/>
<path d="M67 1438 c8 -33 63 -75 63 -49 0 5 -9 11 -20 14 -11 3 -24 17 -30 31
-12 32 -20 34 -13 4z"/>
<path d="M270 1436 c0 -2 8 -10 18 -17 15 -13 16 -12 3 4 -13 16 -21 21 -21
13z"/>
<path d="M330 1421 c0 -5 7 -12 16 -15 14 -5 15 -4 4 9 -14 17 -20 19 -20 6z"/>
<path d="M2979 1418 c12 -15 10 -19 -10 -27 -23 -10 -24 -10 -2 -10 30 -1 39
18 17 37 -17 16 -17 16 -5 0z"/>
<path d="M200 1411 c0 -5 7 -12 16 -15 14 -5 15 -4 4 9 -14 17 -20 19 -20 6z"/>
<path d="M2910 1410 c-1 -8 -2 -18 -1 -22 0 -5 -3 -8 -9 -8 -5 0 -10 5 -10 11
0 5 -5 7 -10 4 -6 -4 -10 -12 -9 -18 1 -7 -1 -20 -6 -30 -12 -27 3 -33 25 -10
14 15 16 23 7 26 -7 3 2 6 18 6 17 1 25 5 19 9 -7 4 -14 16 -17 27 -3 13 -5
15 -7 5z"/>
<path d="M148 1383 c7 -3 16 -2 19 1 4 3 -2 6 -13 5 -11 0 -14 -3 -6 -6z"/>
<path d="M196 1365 c10 -8 24 -14 29 -14 6 0 1 6 -9 14 -11 8 -24 15 -30 15
-5 0 -1 -7 10 -15z"/>
<path d="M70 1351 c0 -13 39 -35 48 -27 3 3 0 6 -6 6 -6 0 -18 7 -26 16 -9 8
-16 11 -16 5z"/>
<path d="M2662 1258 c2 -6 10 -14 16 -16 7 -2 10 2 6 12 -7 18 -28 22 -22 4z"/>
<path d="M2700 1259 c0 -5 5 -7 10 -4 6 3 10 8 10 11 0 2 -4 4 -10 4 -5 0 -10
-5 -10 -11z"/>
<path d="M290 1244 c0 -2 9 -8 20 -14 11 -6 20 -7 20 -2 0 6 -9 12 -20 15 -11
3 -20 3 -20 1z"/>
<path d="M350 1230 c0 -5 5 -10 11 -10 5 0 7 5 4 10 -3 6 -8 10 -11 10 -2 0
-4 -4 -4 -10z"/>
<path d="M383 1196 c9 -7 17 -18 17 -25 0 -6 4 -11 9 -11 5 0 16 -3 24 -6 17
-6 31 22 15 32 -7 4 -8 3 -4 -4 12 -20 -19 -13 -37 8 -9 11 -22 20 -29 20 -8
-1 -6 -6 5 -14z"/>
<path d="M2662 1181 c-10 -6 -9 -10 7 -14 14 -3 21 0 21 9 0 16 -9 18 -28 5z"/>
<path d="M2530 1110 c-12 -8 -10 -10 8 -10 13 0 20 4 17 10 -7 12 -6 12 -25 0z"/>
<path d="M476 1101 c-3 -5 0 -11 7 -14 8 -3 14 1 14 9 0 16 -13 19 -21 5z"/>
<path d="M2660 1101 c0 -6 4 -12 8 -15 5 -3 9 1 9 9 0 8 -4 15 -9 15 -4 0 -8
-4 -8 -9z"/>
<path d="M350 1060 c8 -5 24 -10 34 -10 26 0 18 6 -19 14 -22 5 -26 4 -15 -4z"/>
<path d="M455 1059 c-11 -17 1 -21 15 -4 8 9 8 15 2 15 -6 0 -14 -5 -17 -11z"/>
<path d="M504 1058 c-4 -7 -3 -8 5 -4 12 8 44 -18 34 -28 -4 -3 -1 -6 5 -6 6
0 10 9 9 19 0 11 -5 17 -9 15 -4 -3 -8 0 -8 5 0 15 -27 14 -36 -1z"/>
<path d="M595 1050 c3 -5 8 -10 11 -10 2 0 4 5 4 10 0 6 -5 10 -11 10 -5 0 -7
-4 -4 -10z"/>
<path d="M197 1037 c-3 -8 1 -14 8 -14 7 0 11 6 8 14 -3 7 -6 13 -8 13 -2 0
-5 -6 -8 -13z"/>
<path d="M315 1030 c-16 -6 -13 -8 13 -7 17 0 32 1 32 2 0 8 -28 11 -45 5z"/>
<path d="M385 1020 c10 -11 20 -18 23 -16 5 6 -23 36 -34 36 -4 0 1 -9 11 -20z"/>
<path d="M513 1018 c1 -15 6 -30 10 -34 11 -11 8 29 -3 46 -8 12 -10 9 -7 -12z"/>
<path d="M2610 1021 c0 -25 -13 -33 -55 -34 -19 0 -31 -5 -29 -9 8 -12 59 -3
81 14 20 15 29 48 13 48 -5 0 -10 -9 -10 -19z"/>
<path d="M270 1016 c0 -3 9 -10 20 -16 11 -6 20 -8 20 -6 0 3 -9 10 -20 16
-11 6 -20 8 -20 6z"/>
<path d="M2406 997 c3 -10 9 -15 12 -12 3 3 0 11 -7 18 -10 9 -11 8 -5 -6z"/>
<path d="M2650 1000 c0 -5 5 -10 11 -10 5 0 7 5 4 10 -3 6 -8 10 -11 10 -2 0
-4 -4 -4 -10z"/>
<path d="M455 980 c3 -5 8 -10 11 -10 2 0 4 5 4 10 0 6 -5 10 -11 10 -5 0 -7
-4 -4 -10z"/>
<path d="M540 976 c0 -7 18 -19 39 -26 22 -7 49 -23 60 -36 20 -23 20 -24 2
-24 -11 0 -27 -7 -35 -16 -14 -14 -19 -14 -46 -1 -20 10 -29 11 -27 4 3 -16
-47 -21 -73 -7 -12 6 -19 18 -16 25 2 7 -2 21 -10 32 -9 10 -13 12 -9 6 4 -8
-1 -13 -12 -13 -15 0 -16 -2 -3 -10 11 -7 3 -10 -28 -10 -30 0 -41 3 -36 12 4
7 3 8 -4 4 -25 -15 -10 -26 33 -26 36 0 45 -3 45 -17 0 -14 2 -15 9 -4 5 8 11
9 15 3 3 -6 2 -13 -4 -17 -20 -12 1 -25 22 -14 14 8 22 8 27 0 5 -7 15 -6 33
3 15 8 29 12 32 8 12 -11 56 -10 53 1 -1 8 13 12 41 12 41 0 55 8 30 18 -10 4
-10 6 -1 6 7 1 10 8 7 16 -4 8 -1 15 5 15 21 0 11 27 -14 38 -31 14 -35 15
-35 4 0 -5 12 -13 28 -19 l27 -12 -35 2 c-24 1 -35 7 -35 17 0 16 -26 31 -62
36 -14 1 -23 -3 -23 -10z"/>
<path d="M400 969 c0 -5 -4 -7 -10 -4 -5 3 -10 1 -10 -5 0 -7 7 -9 16 -6 9 3
20 6 25 6 6 0 7 5 4 10 -8 13 -25 13 -25 -1z"/>
<path d="M2545 950 c-3 -5 -2 -10 4 -10 5 0 13 5 16 10 3 6 2 10 -4 10 -5 0
-13 -4 -16 -10z"/>
<path d="M790 946 c0 -2 7 -7 16 -10 8 -3 12 -2 9 4 -6 10 -25 14 -25 6z"/>
<path d="M2975 909 c2 -25 -1 -28 -19 -23 -21 6 -21 6 -1 -10 23 -17 39 -21
30 -6 -3 6 -2 10 2 10 14 0 14 48 -1 53 -9 4 -12 -4 -11 -24z"/>
<path d="M280 910 c0 -6 7 -10 15 -10 8 0 15 2 15 4 0 2 -7 6 -15 10 -8 3 -15
1 -15 -4z"/>
<path d="M480 910 c-13 -8 -12 -10 3 -10 9 0 17 5 17 10 0 12 -1 12 -20 0z"/>
<path d="M805 880 c-3 -5 -1 -10 4 -10 6 0 11 5 11 10 0 6 -2 10 -4 10 -3 0
-8 -4 -11 -10z"/>
<path d="M708 873 c7 -3 16 -2 19 1 4 3 -2 6 -13 5 -11 0 -14 -3 -6 -6z"/>
<path d="M2310 870 c0 -5 5 -10 10 -10 6 0 10 5 10 10 0 6 -4 10 -10 10 -5 0
-10 -4 -10 -10z"/>
<path d="M2511 864 c0 -11 3 -14 6 -6 3 7 2 16 -1 19 -3 4 -6 -2 -5 -13z"/>
<path d="M2341 851 c-7 -5 -9 -11 -5 -14 5 -3 15 1 22 9 14 16 5 18 -17 5z"/>
<path d="M2462 834 c10 -10 20 -16 22 -13 3 3 -5 11 -17 18 -21 13 -21 12 -5
-5z"/>
<path d="M683 826 c-10 -11 -9 -15 2 -20 10 -4 15 1 15 14 0 23 -1 24 -17 6z"/>
<path d="M2418 833 c7 -3 16 -2 19 1 4 3 -2 6 -13 5 -11 0 -14 -3 -6 -6z"/>
<path d="M2953 832 c-8 -5 -1 -13 18 -24 33 -19 37 -16 11 12 -10 10 -23 16
-29 12z"/>
<path d="M2476 785 c-3 -9 0 -15 9 -15 9 0 12 6 9 15 -4 8 -7 15 -9 15 -2 0
-5 -7 -9 -15z"/>
<path d="M410 780 c0 -5 5 -10 11 -10 5 0 7 5 4 10 -3 6 -8 10 -11 10 -2 0 -4
-4 -4 -10z"/>
<path d="M310 762 c0 -12 19 -26 26 -19 2 2 -2 10 -11 17 -9 8 -15 8 -15 2z"/>
<path d="M2278 763 c7 -3 16 -2 19 1 4 3 -2 6 -13 5 -11 0 -14 -3 -6 -6z"/>
<path d="M2318 763 c6 -2 18 -2 25 0 6 3 1 5 -13 5 -14 0 -19 -2 -12 -5z"/>
<path d="M2398 763 c7 -3 16 -2 19 1 4 3 -2 6 -13 5 -11 0 -14 -3 -6 -6z"/>
<path d="M790 750 c20 -13 33 -13 25 0 -3 6 -14 10 -23 10 -15 0 -15 -2 -2
-10z"/>
<path d="M2898 713 c7 -3 16 -2 19 1 4 3 -2 6 -13 5 -11 0 -14 -3 -6 -6z"/>
<path d="M2341 498 c-17 -11 -31 -27 -31 -35 0 -8 5 -11 12 -7 6 4 22 8 36 10
l24 2 -23 -24 c-26 -27 -8 -34 25 -9 11 8 30 15 43 15 30 0 29 14 -3 28 -14 7
-23 16 -20 21 12 18 -33 18 -63 -1z"/>
<path d="M2805 410 c3 -5 8 -10 11 -10 2 0 4 5 4 10 0 6 -5 10 -11 10 -5 0 -7
-4 -4 -10z"/>
<path d="M2364 402 c-6 -4 -14 -16 -17 -27 -6 -18 -6 -19 6 -3 10 12 17 14 24
7 7 -7 12 -4 16 10 5 21 -8 27 -29 13z"/>
<path d="M200 346 c0 -2 7 -6 15 -10 8 -3 15 -1 15 4 0 6 -7 10 -15 10 -8 0
-15 -2 -15 -4z"/>
<path d="M1166 261 c-3 -4 6 -6 19 -3 14 2 25 6 25 8 0 8 -39 4 -44 -5z"/>
<path d="M1491 164 c0 -11 3 -14 6 -6 3 7 2 16 -1 19 -3 4 -6 -2 -5 -13z"/>
</g>
</svg>
